<?xml version="1.0" standalone="no"?>
<!DOCTYPE svg PUBLIC "-//W3C//DTD SVG 20010904//EN"
 "http://www.w3.org/TR/2001/REC-SVG-20010904/DTD/svg10.dtd">
<svg version="1.0" xmlns="http://www.w3.org/2000/svg"
 width="378.000000pt" height="378.000000pt" viewBox="0 0 378.000000 378.000000"
 preserveAspectRatio="xMidYMid meet">
<metadata>
Created by potrace 1.11, written by Peter Selinger 2001-2013
</metadata>
<g transform="translate(0.000000,378.000000) scale(0.100000,-0.100000)"
fill="#000000" stroke="none">
<path d="M1220 3747 c-2 -122 1 -471 3 -474 2 -1 29 6 61 17 198 70 472 92
681 54 32 -5 170 -37 173 -39 3 -2 -11 -55 -64 -253 -14 -51 -27 -100 -29
-110 -2 -9 -22 -82 -43 -162 -22 -80 -65 -242 -97 -360 -31 -118 -67 -250 -80
-292 -12 -43 -21 -78 -19 -78 6 0 106 42 176 74 29 13 91 40 138 61 47 20 99
43 115 50 188 82 272 118 292 126 13 5 21 13 18 19 -3 5 0 7 9 4 8 -3 38 6 68
19 29 13 105 46 168 73 63 27 118 53 122 59 4 5 8 6 8 2 0 -5 13 0 29 9 24 14
33 15 44 5 22 -18 93 -243 111 -351 9 -52 17 -128 19 -167 4 -66 2 -73 -15
-73 -10 0 -18 6 -19 13 0 6 -2 19 -3 27 -2 8 -6 51 -10 94 -4 44 -14 109 -23
145 -8 36 -17 77 -20 91 -7 37 -64 170 -71 166 -15 -8 -123 -56 -128 -56 -2 0
-35 -14 -72 -31 -131 -61 -149 -69 -155 -69 -4 0 -31 -11 -62 -25 -30 -14 -80
-36 -110 -50 -31 -14 -58 -25 -60 -25 -2 0 -35 -14 -72 -32 -38 -17 -70 -32
-73 -33 -15 -5 -96 -40 -185 -80 -43 -19 -77 -34 -95 -40 -7 -3 -74 -32 -149
-66 -35 -16 -65 -29 -66 -29 -3 0 21 107 35 154 6 21 13 46 15 55 1 9 33 125
69 259 37 134 64 248 61 253 -4 5 -2 9 3 9 6 0 13 17 18 38 9 45 8 42 17 67 3
11 9 31 11 45 3 14 12 48 20 75 44 158 96 355 92 355 0 0 -35 7 -76 14 -42 8
-98 18 -125 22 -97 13 -316 5 -380 -13 -11 -3 -29 -7 -40 -8 -74 -9 -328 -102
-318 -117 3 -7 1 -8 -5 -4 -12 7 -140 -59 -162 -84 -3 -3 -21 -17 -40 -30 -55
-39 -70 -53 -71 -70 0 -9 -2 -10 -5 -3 -7 17 -54 -26 -47 -43 4 -10 0 -12 -11
-8 -11 4 -16 1 -16 -11 0 -9 -4 -14 -8 -11 -5 3 -15 -3 -23 -12 -8 -10 -26
-32 -42 -50 -15 -19 -24 -39 -20 -45 4 -6 1 -8 -8 -5 -10 4 -14 -2 -14 -18 0
-23 0 -23 21 4 12 14 19 32 17 40 -3 7 0 12 8 10 7 -2 18 7 24 20 5 12 16 22
23 22 9 0 12 6 8 16 -3 9 -2 12 5 8 14 -8 70 46 62 60 -3 6 -3 8 2 4 11 -11
47 11 39 24 -4 6 -3 8 4 4 6 -3 15 2 21 11 6 10 11 14 11 9 0 -5 9 1 19 13 11
12 22 22 25 21 13 -1 55 33 50 41 -3 5 2 6 10 3 8 -3 24 4 35 15 12 12 21 19
21 16 0 -3 23 6 51 20 27 14 61 30 74 35 l24 9 0 -846 c0 -465 2 -847 4 -850
4 -3 944 -5 2187 -3 l106 0 0 713 c0 487 -3 714 -10 719 -8 5 -8 8 0 8 6 0 10
41 10 115 0 101 -2 113 -16 102 -13 -10 -13 -9 1 8 12 16 15 43 15 120 -1 55
-5 106 -10 114 -6 9 -5 12 0 8 6 -3 10 69 9 191 l0 197 -889 2 c-688 2 -893 0
-905 -10 -12 -9 -13 -9 -7 1 6 10 -43 12 -243 12 l-251 -1 0 -32z m1464 -53
c3 -8 2 -12 -4 -9 -6 3 -10 10 -10 16 0 14 7 11 14 -7z m66 6 c0 -5 -2 -10 -4
-10 -3 0 -8 5 -11 10 -3 6 -1 10 4 10 6 0 11 -4 11 -10z m60 6 c0 -2 -7 -7
-16 -10 -8 -3 -12 -2 -9 4 6 10 25 14 25 6z m77 -11 c0 -8 -4 -12 -9 -9 -5 3
-6 10 -3 15 9 13 12 11 12 -6z m-72 -15 c-3 -5 -12 -10 -18 -10 -7 0 -6 4 3
10 19 12 23 12 15 0z m-595 -14 c0 -2 -8 -10 -17 -17 -16 -13 -17 -12 -4 4 13
16 21 21 21 13z m341 -19 c-10 -9 -11 -8 -5 6 3 10 9 15 12 12 3 -3 0 -11 -7
-18z m124 13 c3 -5 1 -10 -4 -10 -6 0 -11 5 -11 10 0 6 2 10 4 10 3 0 8 -4 11
-10z m255 6 c0 -2 -8 -10 -17 -17 -16 -13 -17 -12 -4 4 13 16 21 21 21 13z
m-550 -20 c0 -3 -4 -8 -10 -11 -5 -3 -10 -1 -10 4 0 6 5 11 10 11 6 0 10 -2
10 -4z m620 -6 c0 -5 -2 -10 -4 -10 -3 0 -8 5 -11 10 -3 6 -1 10 4 10 6 0 11
-4 11 -10z m-436 -18 c2 -4 -4 -8 -14 -8 -10 0 -16 4 -14 8 3 4 9 8 14 8 5 0
11 -4 14 -8z m116 4 c0 -2 -7 -7 -16 -10 -8 -3 -12 -2 -9 4 6 10 25 14 25 6z
m-40 -10 c0 -2 -8 -10 -17 -17 -16 -13 -17 -12 -4 4 13 16 21 21 21 13z m417
-11 c0 -8 -4 -12 -9 -9 -5 3 -6 10 -3 15 9 13 12 11 12 -6z m-573 -3 c3 -5 -1
-9 -9 -9 -8 0 -15 4 -15 9 0 4 4 8 9 8 6 0 12 -4 15 -8z m271 0 c-3 -3 0 -11
6 -19 17 -20 5 -16 -14 5 -15 16 -15 19 -2 19 8 0 13 -3 10 -5z m-218 -15 c0
-8 -6 -14 -14 -14 -9 0 -10 4 -2 14 6 7 12 13 14 13 1 0 2 -6 2 -13z m62 -14
c2 -1 -5 -1 -16 0 -11 0 -20 7 -20 14 0 10 4 10 16 1 9 -7 18 -13 20 -15z m58
14 c0 -8 -6 -14 -14 -14 -9 0 -10 4 -2 14 6 7 12 13 14 13 1 0 2 -6 2 -13z
m60 6 c-4 -3 1 -12 11 -20 16 -12 16 -13 -2 -6 -14 5 -17 3 -11 -7 5 -8 4 -11
-3 -7 -5 4 -9 15 -7 25 5 23 4 22 12 22 3 0 3 -3 0 -7z m104 -10 c13 -16 12
-17 -3 -4 -17 13 -22 21 -14 21 2 0 10 -8 17 -17z m-407 -1 c3 -5 -1 -9 -9 -9
-8 0 -12 4 -9 9 3 4 7 8 9 8 2 0 6 -4 9 -8z m466 -2 c0 -5 -5 -10 -11 -10 -5
0 -7 5 -4 10 3 6 8 10 11 10 2 0 4 -4 4 -10z m175 -20 c3 -5 1 -10 -4 -10 -6
0 -11 5 -11 10 0 6 2 10 4 10 3 0 8 -4 11 -10z m40 0 c3 -5 1 -10 -4 -10 -6 0
-11 5 -11 10 0 6 2 10 4 10 3 0 8 -4 11 -10z m-599 -28 c1 -15 -1 -21 -3 -14
-3 6 -9 9 -15 6 -6 -4 -5 2 1 15 15 27 16 27 17 -7z m41 6 c-3 -8 -6 -5 -6 6
-1 11 2 17 5 13 3 -3 4 -12 1 -19z m30 -10 c-3 -7 -5 -2 -5 12 0 14 2 19 5 13
2 -7 2 -19 0 -25z m223 10 c0 -6 -6 -5 -15 2 -8 7 -15 14 -15 16 0 2 7 1 15
-2 8 -4 15 -11 15 -16z m75 4 c-3 -3 -11 0 -18 7 -9 10 -8 11 6 5 10 -3 15 -9
12 -12z m-428 2 c-3 -3 -12 -4 -19 -1 -8 3 -5 6 6 6 11 1 17 -2 13 -5z m243
-2 c0 -5 -7 -9 -15 -9 -8 0 -12 4 -9 9 3 4 9 8 15 8 5 0 9 -4 9 -8z m65 -2
c-3 -5 -12 -10 -18 -10 -7 0 -6 4 3 10 19 12 23 12 15 0z m239 -1 c-2 -4 -12
-6 -22 -4 -9 1 -24 -3 -32 -9 -13 -9 -13 -8 -3 5 12 14 66 22 57 8z m167 -6
c13 -16 12 -17 -3 -4 -10 7 -18 15 -18 17 0 8 8 3 21 -13z m-526 -21 c-3 -3
-11 0 -18 7 -9 10 -8 11 6 5 10 -3 15 -9 12 -12z m132 3 c0 -8 -4 -12 -9 -9
-5 3 -6 10 -3 15 9 13 12 11 12 -6z m107 -11 c17 2 23 -1 19 -11 -4 -10 -9
-11 -19 -2 -8 6 -14 8 -14 4 0 -4 -7 -2 -15 5 -8 7 -15 18 -15 24 0 6 5 4 10
-6 6 -9 20 -15 34 -14z m173 9 c0 -9 -4 -10 -14 -2 -7 6 -13 12 -13 14 0 1 6
2 13 2 8 0 14 -6 14 -14z m-497 -8 c0 -9 -6 -12 -16 -8 -13 5 -13 7 -2 14 17
11 18 11 18 -6z m56 -11 c-3 -8 1 -17 9 -20 8 -4 15 -10 15 -15 0 -5 -11 -3
-25 3 -14 6 -23 13 -20 16 3 3 -1 12 -8 21 -11 14 -10 15 7 1 18 -14 19 -13
13 3 -4 11 -3 16 4 12 6 -4 8 -13 5 -21z m73 -16 c-5 -10 -12 -18 -15 -18 -2
0 -1 8 4 18 5 9 7 24 5 32 -4 13 -3 13 6 1 6 -10 6 -21 0 -33z m61 38 c0 -2
-7 -6 -15 -10 -8 -3 -15 -1 -15 4 0 6 7 10 15 10 8 0 15 -2 15 -4z m46 -32
c-3 -8 -10 -13 -15 -10 -15 10 -19 -18 -4 -33 8 -7 12 -20 9 -27 -7 -19 4 -17
37 4 15 10 24 22 20 27 -5 4 2 2 14 -6 18 -11 19 -15 9 -21 -22 -12 -8 -50 15
-43 11 4 19 2 19 -3 0 -6 -11 -9 -25 -7 -14 1 -28 -2 -31 -6 -5 -9 9 -13 40
-9 13 1 17 -3 13 -14 -3 -8 -2 -18 3 -21 6 -4 10 -1 10 4 0 6 7 11 16 11 11 0
14 -6 8 -22 -6 -20 -5 -21 10 -9 22 19 20 30 -8 41 -19 7 -24 16 -23 36 3 32
22 43 31 18 5 -14 4 -15 -8 -5 -11 9 -13 7 -13 -13 0 -30 28 -39 56 -19 24 16
28 8 6 -13 -21 -22 -19 -40 3 -22 18 16 42 14 42 -4 0 -7 -5 -6 -14 1 -10 8
-16 9 -21 1 -3 -5 -2 -10 3 -10 11 0 34 -49 27 -60 -6 -10 24 -22 37 -14 5 3
18 -2 28 -11 11 -10 24 -14 32 -9 7 4 4 -3 -6 -15 -20 -22 -20 -22 2 -28 21
-5 21 -6 5 -19 -17 -12 -17 -14 1 -31 18 -17 18 -17 11 5 -4 14 -2 22 5 22 6
0 9 -4 6 -9 -4 -5 6 -19 21 -31 16 -12 22 -19 16 -15 -7 3 -13 2 -13 -3 0 -6
7 -13 16 -16 8 -3 12 -10 9 -16 -6 -10 7 -14 35 -10 11 1 12 -1 4 -10 -9 -9
-17 -9 -33 0 -12 6 -19 15 -16 19 3 5 -2 11 -10 15 -8 3 -15 12 -15 21 0 18
-12 19 -28 3 -17 -17 -15 -33 2 -19 10 9 15 8 20 -4 3 -8 3 -22 0 -30 -4 -11
-2 -13 9 -9 8 3 24 -4 36 -17 24 -26 25 -29 10 -49 -9 -13 -10 -13 -6 1 6 19
-18 59 -35 59 -6 0 -4 -8 5 -18 10 -10 17 -25 16 -33 0 -8 -4 -4 -10 9 -5 13
-14 20 -20 16 -8 -4 -7 -9 2 -15 11 -7 10 -9 -3 -9 -9 0 -26 16 -38 35 -35 56
-188 221 -254 272 -22 18 -26 26 -17 36 8 11 5 16 -15 26 -15 6 -29 10 -31 7
-2 -2 5 -7 16 -11 12 -3 21 -11 21 -16 0 -16 -14 -10 -60 27 -25 20 -64 47
-87 61 -24 14 -43 30 -43 36 0 8 3 8 11 0 14 -14 39 -6 39 12 0 22 17 26 35 8
16 -16 18 -16 27 0 5 10 13 15 19 12 5 -4 9 4 10 17 0 13 3 17 6 10 3 -7 2
-20 -1 -28z m44 1 c5 3 14 -5 20 -17 11 -22 11 -22 -5 -3 -9 11 -19 18 -23 15
-4 -3 -7 4 -8 15 -1 16 0 16 3 2 3 -9 8 -15 13 -12z m157 20 c0 -8 -4 -12 -9
-9 -4 3 -8 0 -8 -7 0 -7 -3 -9 -6 -6 -4 4 -1 13 6 22 15 19 17 19 17 0z m-53
-10 c-4 -8 -11 -15 -16 -15 -6 0 -5 6 2 15 7 8 14 15 16 15 2 0 1 -7 -2 -15z
m87 -2 c13 -16 12 -17 -3 -4 -17 13 -22 21 -14 21 2 0 10 -8 17 -17z m64 9
c-3 -3 0 -10 5 -17 7 -8 5 -12 -5 -12 -8 0 -13 3 -10 5 3 3 0 10 -5 17 -7 8
-5 12 5 12 8 0 13 -3 10 -5z m-433 -9 c-6 -2 -10 -9 -7 -14 4 -5 -1 -6 -10 -2
-13 5 -14 7 -3 14 7 5 18 8 23 8 6 0 4 -3 -3 -6z m162 -31 c2 -4 1 -14 -4 -22
-7 -11 -12 -12 -21 -3 -6 6 -8 16 -5 22 8 13 23 14 30 3z m80 -6 c-10 -8 -21
-12 -24 -10 -5 6 21 24 34 24 6 0 1 -6 -10 -14z m151 -3 c11 -7 15 -13 8 -13
-6 0 -14 4 -18 9 -3 5 -19 8 -35 6 -17 -2 -30 0 -30 4 0 12 52 7 75 -6z m-98
-18 c5 -4 2 -5 -4 -1 -8 4 -13 2 -14 -6 0 -10 -2 -10 -6 0 -2 6 -9 12 -14 12
-6 0 -7 -5 -4 -10 3 -6 -1 -13 -9 -16 -9 -3 -14 -9 -11 -13 2 -4 -2 -8 -10 -8
-22 0 -18 15 5 22 11 3 19 9 19 13 -3 17 2 22 21 19 11 -2 23 -7 27 -12z m138
6 c3 -5 2 -12 -3 -15 -5 -3 -9 1 -9 9 0 17 3 19 12 6z m195 3 c0 -8 -19 -13
-24 -6 -3 5 1 9 9 9 8 0 15 -2 15 -3z m-315 -23 c-3 -6 -11 -11 -16 -11 -5 0
-4 6 3 14 14 16 24 13 13 -3z m70 -14 c4 4 5 2 0 -6 -7 -12 -10 -11 -20 2 -7
9 -15 14 -19 10 -4 -4 -4 1 0 11 7 17 8 17 19 -3 6 -12 15 -18 20 -14z m106 6
c13 -17 13 -17 -6 -3 -11 8 -22 16 -24 17 -2 2 0 3 6 3 6 0 17 -8 24 -17z m66
2 c0 -8 -4 -12 -9 -9 -5 3 -6 10 -3 15 9 13 12 11 12 -6z m-218 -28 c0 -9 -2
-9 -5 0 -3 7 -13 9 -22 6 -14 -4 -14 -3 -2 5 16 12 30 7 29 -11z m96 2 c-6
-32 -12 -34 -12 -4 0 14 3 25 8 25 4 0 6 -10 4 -21z m-78 -21 c-3 -8 -6 -5 -6
6 -1 11 2 17 5 13 3 -3 4 -12 1 -19z m47 7 c-7 -16 -24 -21 -24 -6 0 8 7 13
27 20 1 1 0 -6 -3 -14z m-94 -5 c-8 -5 -19 -10 -25 -10 -5 0 -3 5 5 10 8 5 20
10 25 10 6 0 3 -5 -5 -10z m163 -5 c-3 -9 -8 -14 -10 -11 -3 3 -2 9 2 15 9 16
15 13 8 -4z m88 -8 c-6 -8 -8 -16 -5 -19 3 -3 1 -9 -4 -12 -6 -3 -9 0 -8 6 2
16 15 38 23 38 3 0 0 -6 -6 -13z m-51 -12 c0 -12 -19 -12 -23 0 -4 9 -1 12 9
8 7 -3 14 -7 14 -8z m91 -2 c13 -16 12 -17 -3 -4 -17 13 -22 21 -14 21 2 0 10
-8 17 -17z m-173 -15 c-22 -22 -35 -24 -17 -2 12 15 11 16 -6 11 -11 -4 -26
-3 -32 1 -7 5 6 8 31 8 42 1 42 0 24 -18z m52 -8 c0 -5 -4 -10 -10 -10 -5 0
-10 5 -10 10 0 6 5 10 10 10 6 0 10 -4 10 -10z m43 -10 c-3 -12 -8 -19 -11
-16 -5 6 5 36 12 36 2 0 2 -9 -1 -20z m-129 -6 c4 -10 2 -13 -6 -8 -8 5 -9 1
-4 -12 5 -14 4 -16 -4 -8 -6 6 -8 18 -4 27 8 21 10 21 18 1z m186 12 c0 -2 -8
-10 -17 -17 -16 -13 -17 -12 -4 4 13 16 21 21 21 13z m35 -5 c3 -5 2 -12 -3
-15 -5 -3 -9 1 -9 9 0 17 3 19 12 6z m-163 -20 c-3 -14 29 -11 41 4 5 6 7 4 4
-5 -4 -18 -53 -21 -49 -2 4 20 -16 14 -29 -10 -9 -17 -9 -20 3 -16 8 4 20 -3
26 -13 7 -10 8 -19 3 -19 -5 0 -11 5 -13 11 -2 6 -16 12 -30 12 l-26 0 26 28
c25 29 50 34 44 10z m248 -5 c0 -3 -4 -8 -10 -11 -5 -3 -10 -1 -10 4 0 6 5 11
10 11 6 0 10 -2 10 -4z m-187 -26 c-3 -12 -8 -19 -11 -16 -5 6 5 36 12 36 2 0
2 -9 -1 -20z m104 7 c0 -8 -6 -14 -14 -14 -9 0 -10 4 -2 14 6 7 12 13 14 13 1
0 2 -6 2 -13z m-67 -12 c7 -9 8 -15 2 -15 -5 0 -12 7 -16 15 -3 8 -4 15 -2 15
2 0 9 -7 16 -15z m255 5 c3 -6 -1 -7 -9 -4 -18 7 -21 14 -7 14 6 0 13 -4 16
-10z m-325 -10 c0 -5 -2 -10 -4 -10 -3 0 -8 5 -11 10 -3 6 -1 10 4 10 6 0 11
-4 11 -10z m108 -31 c-3 -8 -7 -3 -11 10 -4 17 -3 21 5 13 5 -5 8 -16 6 -23z
m106 23 c2 -4 -5 -9 -17 -9 -17 -2 -19 0 -7 7 18 12 18 12 24 2z m-78 -17 c-1
-8 -5 -17 -8 -21 -5 -4 -4 16 1 34 3 9 9 -1 7 -13z m-116 -4 c0 -5 9 -11 21
-14 14 -4 18 -10 13 -18 -5 -9 -2 -10 12 -5 14 5 16 4 7 -5 -12 -12 -37 -3
-28 11 3 4 -6 11 -20 14 -24 6 -36 26 -15 26 6 0 10 -4 10 -9z m51 -8 c13 -16
12 -17 -3 -4 -17 13 -22 21 -14 21 2 0 10 -8 17 -17z m189 -9 c0 -8 -19 -13
-24 -6 -3 5 1 9 9 9 8 0 15 -2 15 -3z m-260 -14 c0 -5 -5 -10 -11 -10 -5 0 -7
5 -4 10 3 6 8 10 11 10 2 0 4 -4 4 -10z m104 -6 c3 -8 2 -12 -4 -9 -6 3 -10
10 -10 16 0 14 7 11 14 -7z m76 12 c0 -2 -8 -10 -17 -17 -16 -13 -17 -12 -4 4
13 16 21 21 21 13z m-163 -28 c-3 -8 -6 -5 -6 6 -1 11 2 17 5 13 3 -3 4 -12 1
-19z m203 12 c0 -5 -5 -10 -11 -10 -5 0 -7 5 -4 10 3 6 8 10 11 10 2 0 4 -4 4
-10z m-184 -25 c-3 -8 2 -19 12 -24 9 -5 15 -12 12 -14 -11 -11 -40 21 -34 37
3 9 8 16 11 16 3 0 3 -7 -1 -15z m69 -3 c-3 -3 -11 0 -18 7 -9 10 -8 11 6 5
10 -3 15 -9 12 -12z m155 14 c0 -3 -4 -8 -10 -11 -5 -3 -10 -1 -10 4 0 6 5 11
10 11 6 0 10 -2 10 -4z m-180 -26 c0 -5 -7 -7 -15 -4 -8 4 -15 8 -15 10 0 2 7
4 15 4 8 0 15 -4 15 -10z m50 0 c-35 -24 -54 -31 -30 -11 14 11 30 21 35 21 6
0 3 -5 -5 -10z m34 -22 c-2 -3 -13 -6 -24 -5 -24 2 -18 13 9 13 11 0 18 -4 15
-8z m11 -18 c-3 -5 -16 -10 -28 -9 -20 1 -20 2 3 9 14 4 26 8 28 9 2 1 0 -3
-3 -9z m125 6 c0 -3 -4 -8 -10 -11 -5 -3 -10 -1 -10 4 0 6 5 11 10 11 6 0 10
-2 10 -4z m-210 -10 c0 -2 -7 -6 -15 -10 -8 -3 -15 -1 -15 4 0 6 7 10 15 10 8
0 15 -2 15 -4z m27 -13 c-4 -3 0 -14 9 -24 12 -14 13 -18 2 -25 -7 -4 -10 -4
-6 1 4 4 1 14 -7 22 -18 17 -19 33 -3 33 6 0 8 -3 5 -7z m103 -24 c0 -5 -4 -9
-8 -9 -5 0 -9 7 -9 15 0 8 4 12 9 9 4 -3 8 -9 8 -15z m-76 -44 c-9 -14 -18
-25 -21 -25 -5 0 5 18 20 38 17 22 18 13 1 -13z m-30 7 c2 -4 -5 -9 -17 -9
-17 -2 -19 0 -7 7 18 12 18 12 24 2z m72 -4 c4 -7 3 -8 -4 -4 -7 4 -12 2 -12
-5 0 -7 -3 -10 -6 -6 -6 5 3 27 11 27 2 0 7 -5 11 -12z m174 2 c0 -5 -2 -10
-4 -10 -3 0 -8 5 -11 10 -3 6 -1 10 4 10 6 0 11 -4 11 -10z m-65 -20 c3 -5 1
-10 -4 -10 -6 0 -11 5 -11 10 0 6 2 10 4 10 3 0 8 -4 11 -10z m-199 -38 c-10
-11 -16 -12 -16 -4 0 7 5 12 10 12 6 0 10 8 11 18 0 11 2 13 6 4 3 -8 -2 -21
-11 -30z m122 13 c-3 -3 -9 2 -12 12 -6 14 -5 15 5 6 7 -7 10 -15 7 -18z m-76
-9 c7 4 8 2 4 -5 -9 -13 -26 -5 -25 12 0 9 2 8 6 -1 2 -6 10 -9 15 -6z m58 10
c0 -2 -6 -9 -14 -15 -11 -9 -16 -9 -22 0 -4 7 -3 9 4 5 6 -3 13 -2 17 4 6 10
15 14 15 6z m97 -11 c0 -8 -4 -12 -9 -9 -5 3 -6 10 -3 15 9 13 12 11 12 -6z
m-244 -14 c15 -8 27 -19 27 -24 0 -5 -7 -3 -17 4 -15 13 -15 12 -4 -8 7 -13 8
-23 2 -23 -5 0 -13 9 -16 20 -3 11 -14 27 -23 37 -17 17 -15 16 31 -6z m164
-6 c0 -8 -4 -12 -8 -9 -4 2 -10 0 -14 -6 -3 -5 -11 -10 -17 -10 -7 0 26 35 38
40 0 0 1 -7 1 -15z m-103 -10 c-4 -8 -8 -15 -10 -15 -2 0 -4 7 -4 15 0 8 4 15
10 15 5 0 7 -7 4 -15z m20 -7 c-5 -8 -1 -9 12 -4 14 5 16 4 7 -5 -13 -13 -37
-3 -28 12 4 5 8 9 11 9 3 0 2 -5 -2 -12z m141 3 c3 -5 2 -12 -3 -15 -5 -3 -9
1 -9 9 0 17 3 19 12 6z m-58 -26 c0 -8 -3 -13 -5 -10 -3 3 -10 0 -17 -5 -8 -7
-12 -5 -12 5 0 8 4 12 8 9 4 -2 10 0 14 6 9 14 12 13 12 -5z m-117 -4 c0 -5
-5 -11 -11 -13 -5 -2 -7 -11 -4 -21 9 -22 26 -22 18 1 -3 9 -3 14 1 11 10 -10
16 -48 7 -53 -12 -8 -42 51 -35 68 7 17 24 22 24 7z m50 -15 c0 -2 -7 -7 -16
-10 -8 -3 -12 -2 -9 4 6 10 25 14 25 6z m67 -21 c0 -8 -3 -13 -5 -10 -3 3 -12
-1 -21 -7 -10 -8 -9 -4 3 10 23 26 23 26 23 7z m138 -5 c3 -5 1 -10 -4 -10 -6
0 -11 5 -11 10 0 6 2 10 4 10 3 0 8 -4 11 -10z m-97 -45 c-3 -3 -9 2 -12 12
-6 14 -5 15 5 6 7 -7 10 -15 7 -18z m-60 -10 c17 -19 17 -19 -5 -1 -18 15 -23
16 -24 5 0 -10 -2 -11 -6 -1 -2 6 -9 10 -13 7 -5 -3 -11 -1 -14 3 -11 18 45 6
62 -13z m-58 -10 c0 -12 -19 -12 -23 0 -4 9 -1 12 9 8 7 -3 14 -7 14 -8z m50
-11 c0 -8 -19 -13 -24 -6 -3 5 1 9 9 9 8 0 15 -2 15 -3z m-10 -61 c0 -2 -11 4
-25 13 -14 9 -25 20 -25 25 0 5 11 -1 25 -13 14 -12 25 -23 25 -25z m50 23 c0
-2 -8 -10 -17 -17 -16 -13 -17 -12 -4 4 13 16 21 21 21 13z m67 -31 c0 -8 -4
-12 -9 -9 -5 3 -6 10 -3 15 9 13 12 11 12 -6z m-120 -20 c0 -8 -4 -12 -9 -9
-5 3 -6 10 -3 15 9 13 12 11 12 -6z m47 7 c3 -5 -1 -9 -9 -9 -8 0 -12 4 -9 9
3 4 7 8 9 8 2 0 6 -4 9 -8z m9 -37 c-3 -9 -8 -14 -10 -11 -3 3 -2 9 2 15 9 16
15 13 8 -4z"/>
<path d="M2694 3456 c-13 -28 10 -56 29 -36 7 6 8 10 2 8 -9 -3 -15 4 -15 17
0 3 11 -2 25 -11 14 -9 22 -20 20 -25 -3 -4 0 -17 6 -27 17 -27 74 -24 74 3 0
11 4 26 9 33 7 12 4 12 -13 2 -16 -8 -20 -17 -15 -33 6 -22 6 -22 -10 -2 -15
20 -15 20 -16 1 0 -19 0 -19 -14 -1 -8 11 -12 24 -9 31 2 6 -11 22 -29 36
l-34 26 -10 -22z"/>
<path d="M2730 3405 c0 -8 2 -15 4 -15 2 0 6 7 10 15 3 8 1 15 -4 15 -6 0 -10
-7 -10 -15z"/>
<path d="M2863 3333 c-20 -7 -15 -21 8 -28 17 -6 19 -9 8 -17 -10 -6 -7 -7 10
-3 14 5 21 3 17 -3 -6 -10 48 -72 63 -72 5 0 13 -9 16 -20 6 -20 45 -29 45 -9
0 5 -4 8 -9 5 -13 -9 -31 18 -22 33 6 9 11 10 15 2 4 -6 2 -11 -5 -11 -16 0
-2 -13 17 -16 8 -1 18 4 21 12 4 11 9 12 19 4 7 -7 11 -17 8 -25 -3 -7 0 -16
6 -20 8 -5 8 -11 -1 -21 -9 -11 -8 -14 2 -14 8 0 6 -6 -7 -16 -18 -15 -18 -15
6 -10 24 5 24 4 6 -9 -11 -8 -15 -15 -9 -15 6 0 21 -16 33 -35 12 -19 26 -35
32 -35 6 0 3 9 -7 20 -10 11 -13 20 -7 20 7 0 12 5 12 11 0 6 -7 9 -15 6 -18
-8 -31 11 -17 25 8 8 6 15 -4 25 -8 8 -12 23 -9 33 3 10 1 21 -4 24 -6 4 -8
13 -5 20 3 7 -2 19 -11 26 -12 10 -18 10 -30 0 -8 -7 -15 -8 -15 -3 0 5 -12
15 -26 22 -24 10 -25 10 -20 -11 3 -13 3 -17 0 -10 -3 6 -11 9 -16 6 -7 -5 -8
-2 -3 6 5 9 4 11 -3 6 -24 -15 -11 2 14 19 15 9 23 12 20 6 -4 -6 -2 -11 3
-11 16 0 13 12 -10 40 l-20 25 3 -25 c2 -17 -2 -25 -12 -25 -8 0 -18 -4 -22
-10 -4 -6 -8 -2 -8 8 0 14 5 17 23 13 12 -3 17 -3 10 0 -7 3 -9 13 -6 22 6 15
4 15 -14 -1 -22 -19 -41 -8 -27 16 6 9 5 9 -8 -1 -12 -10 -17 -10 -27 1 -6 8
-8 17 -4 20 7 8 4 8 -14 0z"/>
<path d="M3049 3193 c-1 -5 -1 -11 0 -15 0 -4 -8 -10 -20 -13 -19 -6 -19 -7 5
-26 29 -23 37 -24 30 -4 -4 8 -10 13 -14 10 -5 -3 -11 -1 -15 4 -3 6 6 8 21 5
23 -4 25 -3 15 10 -7 8 -10 20 -6 26 3 5 1 10 -4 10 -6 0 -12 -3 -12 -7z"/>
<path d="M2790 3449 c0 -5 5 -7 10 -4 6 3 10 8 10 11 0 2 -4 4 -10 4 -5 0 -10
-5 -10 -11z"/>
<path d="M640 2741 c0 -7 -5 -9 -12 -5 -6 4 -8 3 -4 -4 3 -5 0 -13 -6 -15 -8
-4 -9 -6 -2 -6 15 -1 39 28 30 36 -3 3 -6 1 -6 -6z"/>
<path d="M600 2681 c0 -7 -5 -9 -12 -5 -7 5 -8 3 -3 -5 5 -9 10 -10 18 -2 6 6
8 14 4 18 -4 3 -7 1 -7 -6z"/>
<path d="M260 1481 c0 -23 9 -30 44 -33 l26 -2 0 -148 c1 -81 1 -186 1 -233 0
-47 0 -179 -1 -295 l0 -209 -32 -9 c-23 -6 -34 -15 -36 -30 -3 -22 -2 -22 147
-22 146 0 151 1 151 21 0 11 -5 17 -10 14 -6 -3 -10 -2 -10 2 0 5 -13 13 -28
19 l-28 11 0 256 c1 142 -3 257 -7 257 -5 0 -5 6 -1 12 5 7 8 86 8 177 1 146
3 165 19 172 9 5 25 13 35 18 9 4 17 14 17 22 0 11 -30 15 -147 17 -141 2
-148 2 -148 -17z"/>
<path d="M995 1255 c-32 -9 -74 -24 -93 -35 -18 -11 -35 -20 -36 -20 -2 0 -9
14 -16 30 l-12 30 -90 0 c-87 0 -89 -1 -86 -22 2 -17 11 -24 31 -26 29 -4 30
-6 29 -85 0 -31 3 -45 10 -41 7 5 8 2 2 -7 -9 -13 -16 -528 -8 -560 3 -12 20
-15 79 -15 l76 0 -1 245 c0 135 0 266 0 292 0 44 1 46 48 68 31 16 72 25 122
28 64 4 80 1 108 -17 58 -36 62 -60 62 -353 l0 -263 79 0 78 0 -2 291 c-2 267
-4 294 -22 335 -25 54 -64 93 -118 116 -55 23 -167 27 -240 9z"/>
<path d="M1700 1255 c-137 -37 -189 -103 -177 -222 10 -100 60 -142 234 -198
81 -26 125 -46 145 -65 15 -15 29 -26 31 -23 8 8 -5 -52 -16 -75 -29 -59 -128
-72 -282 -38 -11 2 -33 9 -48 15 -41 16 -47 14 -47 -13 0 -14 -4 -35 -9 -49
-13 -32 -4 -42 54 -61 144 -49 330 -37 416 27 83 61 100 217 32 297 -33 40
-75 61 -200 99 -116 36 -156 63 -159 109 -5 78 125 110 284 68 29 -7 54 -10
56 -7 2 3 7 29 11 57 l7 52 -35 11 c-80 27 -229 35 -297 16z"/>
<path d="M2388 1254 c-69 -17 -112 -48 -151 -107 -48 -74 -62 -133 -62 -267 0
-137 18 -205 70 -273 86 -113 260 -139 498 -76 33 9 38 14 34 32 -3 12 -9 39
-12 60 -8 40 -12 42 -65 27 -90 -26 -210 -29 -265 -6 -64 27 -91 66 -104 147
-5 33 -4 52 3 57 6 4 114 7 240 7 l228 -1 -6 93 c-12 188 -77 278 -222 312
-58 14 -120 12 -186 -5z m199 -129 c41 -24 60 -55 68 -108 6 -42 5 -47 -11
-48 -11 0 -85 -1 -167 -2 l-147 -2 0 26 c0 68 44 130 105 149 42 12 118 5 152
-15z"/>
<path d="M3108 1255 c-137 -36 -208 -155 -213 -354 -3 -143 19 -231 76 -303
55 -69 154 -104 283 -100 65 2 163 17 214 33 36 12 35 4 16 99 -5 29 -8 30
-42 24 -21 -3 -46 -8 -57 -12 -35 -10 -49 -12 -115 -14 -134 -3 -201 46 -219
161 -5 34 -4 54 3 59 6 4 114 7 240 6 l228 -1 -6 91 c-7 112 -18 151 -59 213
-47 69 -122 106 -225 108 -42 1 -98 -3 -124 -10z m198 -129 c43 -26 64 -60 71
-114 l5 -47 -163 1 -164 1 2 41 c4 89 71 143 168 138 29 -2 65 -11 81 -20z"/>
<path d="M3234 322 c-6 -4 -10 -19 -9 -35 2 -23 -1 -26 -19 -21 -12 3 -23 6
-26 6 -41 1 -60 -25 -60 -81 0 -67 17 -86 75 -84 26 1 49 4 51 6 3 2 3 52 2
110 -2 73 -6 104 -14 99z m-16 -89 c7 -16 8 -47 3 -90 0 -7 -14 -13 -31 -13
-32 0 -36 5 -44 58 -7 52 51 88 72 45z"/>
<path d="M260 210 c0 -79 3 -100 14 -100 11 0 14 16 12 69 -1 38 2 67 5 65 4
-2 18 -33 31 -69 15 -42 28 -65 37 -63 7 2 26 35 42 73 l28 70 0 -72 c1 -54 4
-73 15 -73 10 0 13 22 12 100 0 88 -2 100 -17 100 -10 0 -21 -10 -25 -22 -4
-13 -18 -48 -31 -78 l-24 -55 -14 30 c-7 17 -21 51 -30 78 -13 33 -23 47 -36
47 -17 0 -19 -9 -19 -100z"/>
<path d="M506 248 c-16 -23 -20 -66 -10 -104 6 -22 38 -42 62 -38 6 1 21 2 32
3 11 0 20 7 20 15 0 11 -9 13 -36 9 -38 -6 -54 5 -54 39 0 13 8 16 38 14 47
-3 62 2 62 23 0 33 -30 61 -65 61 -24 0 -39 -7 -49 -22z m68 -4 c9 -3 16 -14
16 -24 0 -13 -8 -17 -32 -16 -34 2 -49 23 -27 37 17 10 23 11 43 3z"/>
<path d="M650 250 c-17 -31 -4 -53 42 -72 40 -17 41 -18 24 -37 -15 -16 -23
-18 -43 -10 -29 11 -42 4 -25 -13 18 -18 73 -14 88 7 21 28 11 56 -27 74 -44
21 -45 46 -1 46 19 0 32 5 32 12 0 8 -14 13 -40 13 -29 0 -42 -5 -50 -20z"/>
<path d="M770 201 c0 -73 8 -88 51 -94 23 -4 68 10 70 22 1 3 3 36 4 74 2 51
-1 67 -11 67 -10 0 -14 -17 -14 -65 0 -62 -1 -65 -27 -71 -37 -10 -50 13 -47
80 1 42 -2 56 -12 56 -11 0 -14 -17 -14 -69z"/>
<path d="M930 191 c0 -65 3 -81 15 -81 11 0 15 13 15 53 0 42 5 58 21 73 12
10 24 18 27 16 4 -2 8 1 10 7 6 17 -29 13 -50 -6 -13 -12 -18 -13 -16 -4 2 7
-3 16 -9 18 -10 4 -13 -16 -13 -76z"/>
<path d="M1046 248 c-34 -48 -9 -135 39 -139 47 -4 74 1 69 14 -3 8 -17 11
-37 9 -22 -2 -38 2 -46 12 -22 26 -8 41 40 41 38 0 44 3 47 23 8 56 -80 86
-112 40z m71 -6 c6 -4 13 -14 15 -22 2 -11 -7 -15 -34 -15 -39 -1 -42 2 -32
29 6 17 31 21 51 8z"/>
<path d="M1189 248 c-4 -127 -3 -138 9 -138 14 0 13 -1 16 63 2 47 23 76 54
77 6 0 12 5 12 10 0 14 -43 13 -58 -2 -9 -9 -12 -9 -12 0 0 22 -20 12 -21 -10z"/>
<path d="M1358 235 c-7 -68 3 -165 17 -165 9 0 12 8 9 26 -3 18 -1 23 7 18 21
-13 73 -6 86 12 7 10 13 39 13 64 0 61 -20 80 -83 78 -43 -2 -46 -4 -49 -33z
m92 0 c31 -38 13 -105 -29 -105 -27 0 -39 20 -37 63 3 52 39 75 66 42z"/>
<path d="M1529 254 c-19 -23 -18 -110 3 -130 21 -21 83 -23 103 -3 29 29 23
121 -8 141 -21 14 -84 9 -98 -8z m86 -14 c11 -18 14 -73 4 -92 -11 -20 -49
-24 -67 -6 -15 15 -16 63 -2 89 11 20 54 26 65 9z"/>
<path d="M1679 263 c-4 -41 5 -131 14 -140 17 -17 58 -22 85 -10 12 6 22 13
23 16 5 28 3 125 -3 134 -12 20 -21 -1 -19 -50 1 -66 -6 -83 -34 -83 -31 0
-45 27 -41 76 2 22 1 45 -2 52 -5 13 -21 17 -23 5z"/>
<path d="M1840 190 c0 -60 3 -80 13 -80 9 0 14 13 14 38 0 76 14 100 56 93 4
0 7 6 7 14 0 18 -31 20 -49 3 -11 -10 -14 -10 -18 0 -13 34 -23 4 -23 -68z"/>
<path d="M2021 261 c-20 -13 -27 -111 -9 -134 16 -22 55 -30 79 -16 29 15 23
24 -18 24 -34 0 -38 3 -44 35 -9 41 12 82 39 79 31 -3 43 1 37 11 -8 12 -65
13 -84 1z"/>
<path d="M2149 254 c-7 -9 -14 -38 -15 -65 -2 -41 1 -52 22 -68 29 -23 83 -20
102 6 19 26 15 107 -6 126 -24 22 -85 22 -103 1z m79 -12 c11 -7 17 -51 13
-90 0 -7 -11 -17 -23 -21 -33 -13 -58 13 -58 59 0 51 31 75 68 52z"/>
<path d="M2303 188 c1 -55 5 -78 14 -78 8 0 13 22 15 67 3 57 6 68 22 71 29 6
39 -12 39 -77 1 -43 5 -61 14 -61 9 0 13 18 13 64 0 66 11 83 45 70 16 -7 16
-6 19 -79 1 -36 5 -51 16 -53 13 -2 15 7 12 60 -6 96 -6 96 -116 95 l-94 -1 1
-78z"/>
<path d="M2543 168 c1 -72 5 -98 14 -98 7 0 13 9 13 20 0 16 6 19 36 18 20 -1
42 5 50 14 21 21 28 88 12 118 -12 22 -21 25 -70 26 l-56 1 1 -99z m91 66 c20
-19 21 -78 2 -94 -8 -6 -25 -10 -38 -8 -20 3 -23 10 -25 47 -4 64 26 91 61 55z"/>
<path d="M2709 240 c0 -16 -1 -46 -1 -65 0 -60 2 -65 16 -65 10 0 13 11 12 38
-3 41 11 91 25 93 5 1 14 2 21 3 6 0 13 7 16 14 5 15 -22 16 -49 2 -13 -7 -19
-7 -19 0 0 26 -20 7 -21 -20z"/>
<path d="M2826 248 c-20 -28 -21 -87 -1 -115 18 -26 56 -36 90 -23 34 13 24
28 -15 22 -34 -5 -60 12 -60 38 0 15 8 17 50 16 48 -2 50 -1 50 25 0 37 -24
59 -65 59 -24 0 -39 -7 -49 -22z m84 -17 c12 -24 5 -29 -35 -27 -27 2 -31 7
-26 36 2 18 50 11 61 -9z"/>
<path d="M2968 231 c-5 -60 3 -121 16 -121 8 0 12 19 11 60 -1 69 12 89 48 73
19 -9 22 -18 22 -69 1 -45 5 -60 16 -62 13 -2 15 8 13 63 -3 83 -13 96 -75 94
-48 -2 -48 -2 -51 -38z"/>
<path d="M3290 190 c0 -64 3 -80 15 -80 11 0 15 13 15 54 0 57 20 92 46 82 8
-3 14 1 14 9 0 17 -23 19 -51 5 -13 -7 -19 -7 -19 0 0 5 -4 10 -10 10 -6 0
-10 -33 -10 -80z"/>
<path d="M3406 248 c-21 -30 -20 -91 2 -117 27 -32 102 -38 102 -7 0 8 -11 11
-30 8 -34 -5 -60 12 -60 37 0 14 9 17 47 17 55 -1 66 17 39 59 -22 33 -78 35
-100 3z m81 -25 c14 -21 13 -21 -26 -20 -31 2 -41 6 -41 19 0 33 45 34 67 1z"/>
<path d="M323 32 c-47 -2 -63 -7 -63 -17 0 -13 212 -15 1630 -15 1442 0 1630
2 1630 15 0 11 -12 15 -47 15 -545 3 -3105 4 -3150 2z"/>
</g>
</svg>
