<svg width="283" height="320" viewBox="0 0 283 320" fill="none" xmlns="http://www.w3.org/2000/svg">
<g clip-path="url(#clip0_37_13133)">
<path fill-rule="evenodd" clip-rule="evenodd" d="M36.7054 315.1C37.9233 315.1 38.9107 316.084 38.9107 317.299C38.9107 318.515 37.9233 319.5 36.7054 319.5C35.4874 319.5 34.5 318.515 34.5 317.299C34.5 316.084 35.4874 315.1 36.7054 315.1ZM52.878 315.1C54.096 315.1 55.0833 316.084 55.0833 317.299C55.0833 318.515 54.096 319.5 52.878 319.5C51.66 319.5 50.6726 318.515 50.6726 317.299C50.6726 316.084 51.66 315.1 52.878 315.1ZM69.0506 315.1C70.2686 315.1 71.256 316.084 71.256 317.299C71.256 318.515 70.2686 319.5 69.0506 319.5C67.8326 319.5 66.8452 318.515 66.8452 317.299C66.8452 316.084 67.8326 315.1 69.0506 315.1ZM85.2232 315.1C86.4412 315.1 87.4286 316.084 87.4286 317.299C87.4286 318.515 86.4412 319.5 85.2232 319.5C84.0052 319.5 83.0179 318.515 83.0179 317.299C83.0179 316.084 84.0052 315.1 85.2232 315.1ZM101.396 315.1C102.614 315.1 103.601 316.084 103.601 317.299C103.601 318.515 102.614 319.5 101.396 319.5C100.178 319.5 99.1905 318.515 99.1905 317.299C99.1905 316.084 100.178 315.1 101.396 315.1ZM117.568 315.1C118.786 315.1 119.774 316.084 119.774 317.299C119.774 318.515 118.786 319.5 117.568 319.5C116.35 319.5 115.363 318.515 115.363 317.299C115.363 316.084 116.35 315.1 117.568 315.1ZM133.741 315.1C134.959 315.1 135.946 316.084 135.946 317.299C135.946 318.515 134.959 319.5 133.741 319.5C132.523 319.5 131.536 318.515 131.536 317.299C131.536 316.084 132.523 315.1 133.741 315.1ZM149.914 315.1C151.132 315.1 152.119 316.084 152.119 317.299C152.119 318.515 151.132 319.5 149.914 319.5C148.696 319.5 147.708 318.515 147.708 317.299C147.708 316.084 148.696 315.1 149.914 315.1ZM166.086 315.1C167.304 315.1 168.292 316.084 168.292 317.299C168.292 318.515 167.304 319.5 166.086 319.5C164.868 319.5 163.881 318.515 163.881 317.299C163.881 316.084 164.868 315.1 166.086 315.1ZM182.259 315.007C183.477 315.007 184.464 315.992 184.464 317.207C184.464 318.422 183.477 319.407 182.259 319.407C181.041 319.407 180.054 318.422 180.054 317.207C180.054 315.992 181.041 315.007 182.259 315.007ZM198.432 315.007C199.65 315.007 200.637 315.992 200.637 317.207C200.637 318.422 199.65 319.407 198.432 319.407C197.214 319.407 196.226 318.422 196.226 317.207C196.226 315.992 197.214 315.007 198.432 315.007ZM214.604 315.007C215.822 315.007 216.81 315.992 216.81 317.207C216.81 318.422 215.822 319.407 214.604 319.407C213.386 319.407 212.399 318.422 212.399 317.207C212.399 315.992 213.386 315.007 214.604 315.007ZM230.777 315.007C231.995 315.007 232.982 315.992 232.982 317.207C232.982 318.422 231.995 319.407 230.777 319.407C229.559 319.407 228.571 318.422 228.571 317.207C228.571 315.992 229.559 315.007 230.777 315.007ZM246.949 315.007C248.167 315.007 249.155 315.992 249.155 317.207C249.155 318.422 248.167 319.407 246.949 319.407C245.731 319.407 244.744 318.422 244.744 317.207C244.744 315.992 245.731 315.007 246.949 315.007ZM263.122 315.007C264.34 315.007 265.327 315.992 265.327 317.207C265.327 318.422 264.34 319.407 263.122 319.407C261.904 319.407 260.917 318.422 260.917 317.207C260.917 315.992 261.904 315.007 263.122 315.007ZM279.295 315.007C280.513 315.007 281.5 315.992 281.5 317.207C281.5 318.422 280.513 319.407 279.295 319.407C278.077 319.407 277.089 318.422 277.089 317.207C277.089 315.992 278.077 315.007 279.295 315.007ZM166.086 298.966C167.304 298.966 168.292 299.951 168.292 301.166C168.292 302.381 167.304 303.366 166.086 303.366C164.868 303.366 163.881 302.381 163.881 301.166C163.881 299.951 164.868 298.966 166.086 298.966ZM182.259 298.874C183.477 298.874 184.464 299.859 184.464 301.074C184.464 302.289 183.477 303.274 182.259 303.274C181.041 303.274 180.054 302.289 180.054 301.074C180.054 299.859 181.041 298.874 182.259 298.874ZM198.432 298.874C199.65 298.874 200.637 299.859 200.637 301.074C200.637 302.289 199.65 303.274 198.432 303.274C197.214 303.274 196.226 302.289 196.226 301.074C196.226 299.859 197.214 298.874 198.432 298.874ZM214.604 298.874C215.822 298.874 216.81 299.859 216.81 301.074C216.81 302.289 215.822 303.274 214.604 303.274C213.386 303.274 212.399 302.289 212.399 301.074C212.399 299.859 213.386 298.874 214.604 298.874ZM36.7054 298.966C37.9233 298.966 38.9107 299.951 38.9107 301.166C38.9107 302.381 37.9233 303.366 36.7054 303.366C35.4874 303.366 34.5 302.381 34.5 301.166C34.5 299.951 35.4874 298.966 36.7054 298.966ZM69.0506 298.966C70.2686 298.966 71.256 299.951 71.256 301.166C71.256 302.381 70.2686 303.366 69.0506 303.366C67.8326 303.366 66.8452 302.381 66.8452 301.166C66.8452 299.951 67.8326 298.966 69.0506 298.966ZM101.396 298.966C102.614 298.966 103.601 299.951 103.601 301.166C103.601 302.381 102.614 303.366 101.396 303.366C100.178 303.366 99.1905 302.381 99.1905 301.166C99.1905 299.951 100.178 298.966 101.396 298.966ZM133.741 298.966C134.959 298.966 135.946 299.951 135.946 301.166C135.946 302.381 134.959 303.366 133.741 303.366C132.523 303.366 131.536 302.381 131.536 301.166C131.536 299.951 132.523 298.966 133.741 298.966ZM149.914 298.966C151.132 298.966 152.119 299.951 152.119 301.166C152.119 302.381 151.132 303.366 149.914 303.366C148.696 303.366 147.708 302.381 147.708 301.166C147.708 299.951 148.696 298.966 149.914 298.966ZM246.949 298.874C248.167 298.874 249.155 299.859 249.155 301.074C249.155 302.289 248.167 303.274 246.949 303.274C245.731 303.274 244.744 302.289 244.744 301.074C244.744 299.859 245.731 298.874 246.949 298.874ZM52.878 298.966C54.096 298.966 55.0833 299.951 55.0833 301.166C55.0833 302.381 54.096 303.366 52.878 303.366C51.66 303.366 50.6726 302.381 50.6726 301.166C50.6726 299.951 51.66 298.966 52.878 298.966ZM263.122 298.874C264.34 298.874 265.327 299.859 265.327 301.074C265.327 302.289 264.34 303.274 263.122 303.274C261.904 303.274 260.917 302.289 260.917 301.074C260.917 299.859 261.904 298.874 263.122 298.874ZM85.2232 298.966C86.4412 298.966 87.4286 299.951 87.4286 301.166C87.4286 302.381 86.4412 303.366 85.2232 303.366C84.0052 303.366 83.0179 302.381 83.0179 301.166C83.0179 299.951 84.0052 298.966 85.2232 298.966ZM279.295 298.874C280.513 298.874 281.5 299.859 281.5 301.074C281.5 302.289 280.513 303.274 279.295 303.274C278.077 303.274 277.089 302.289 277.089 301.074C277.089 299.859 278.077 298.874 279.295 298.874ZM117.568 298.966C118.786 298.966 119.774 299.951 119.774 301.166C119.774 302.381 118.786 303.366 117.568 303.366C116.35 303.366 115.363 302.381 115.363 301.166C115.363 299.951 116.35 298.966 117.568 298.966ZM230.777 298.874C231.995 298.874 232.982 299.859 232.982 301.074C232.982 302.289 231.995 303.274 230.777 303.274C229.559 303.274 228.571 302.289 228.571 301.074C228.571 299.859 229.559 298.874 230.777 298.874ZM69.0506 282.833C70.2686 282.833 71.256 283.818 71.256 285.033C71.256 286.248 70.2686 287.233 69.0506 287.233C67.8326 287.233 66.8452 286.248 66.8452 285.033C66.8452 283.818 67.8326 282.833 69.0506 282.833ZM101.396 282.833C102.614 282.833 103.601 283.818 103.601 285.033C103.601 286.248 102.614 287.233 101.396 287.233C100.178 287.233 99.1905 286.248 99.1905 285.033C99.1905 283.818 100.178 282.833 101.396 282.833ZM117.568 282.833C118.786 282.833 119.774 283.818 119.774 285.033C119.774 286.248 118.786 287.233 117.568 287.233C116.35 287.233 115.363 286.248 115.363 285.033C115.363 283.818 116.35 282.833 117.568 282.833ZM133.741 282.833C134.959 282.833 135.946 283.818 135.946 285.033C135.946 286.248 134.959 287.233 133.741 287.233C132.523 287.233 131.536 286.248 131.536 285.033C131.536 283.818 132.523 282.833 133.741 282.833ZM149.914 282.833C151.132 282.833 152.119 283.818 152.119 285.033C152.119 286.248 151.132 287.233 149.914 287.233C148.696 287.233 147.708 286.248 147.708 285.033C147.708 283.818 148.696 282.833 149.914 282.833ZM36.7054 282.833C37.9233 282.833 38.9107 283.818 38.9107 285.033C38.9107 286.248 37.9233 287.233 36.7054 287.233C35.4874 287.233 34.5 286.248 34.5 285.033C34.5 283.818 35.4874 282.833 36.7054 282.833ZM52.878 282.833C54.096 282.833 55.0833 283.818 55.0833 285.033C55.0833 286.248 54.096 287.233 52.878 287.233C51.66 287.233 50.6726 286.248 50.6726 285.033C50.6726 283.818 51.66 282.833 52.878 282.833ZM85.2232 282.833C86.4412 282.833 87.4286 283.818 87.4286 285.033C87.4286 286.248 86.4412 287.233 85.2232 287.233C84.0052 287.233 83.0179 286.248 83.0179 285.033C83.0179 283.818 84.0052 282.833 85.2232 282.833ZM166.086 282.833C167.304 282.833 168.292 283.818 168.292 285.033C168.292 286.248 167.304 287.233 166.086 287.233C164.868 287.233 163.881 286.248 163.881 285.033C163.881 283.818 164.868 282.833 166.086 282.833ZM182.259 282.741C183.477 282.741 184.464 283.726 184.464 284.941C184.464 286.156 183.477 287.141 182.259 287.141C181.041 287.141 180.054 286.156 180.054 284.941C180.054 283.726 181.041 282.741 182.259 282.741ZM198.432 282.741C199.65 282.741 200.637 283.726 200.637 284.941C200.637 286.156 199.65 287.141 198.432 287.141C197.214 287.141 196.226 286.156 196.226 284.941C196.226 283.726 197.214 282.741 198.432 282.741ZM214.604 282.741C215.822 282.741 216.81 283.726 216.81 284.941C216.81 286.156 215.822 287.141 214.604 287.141C213.386 287.141 212.399 286.156 212.399 284.941C212.399 283.726 213.386 282.741 214.604 282.741ZM230.777 282.741C231.995 282.741 232.982 283.726 232.982 284.941C232.982 286.156 231.995 287.141 230.777 287.141C229.559 287.141 228.571 286.156 228.571 284.941C228.571 283.726 229.559 282.741 230.777 282.741ZM246.949 282.741C248.167 282.741 249.155 283.726 249.155 284.941C249.155 286.156 248.167 287.141 246.949 287.141C245.731 287.141 244.744 286.156 244.744 284.941C244.744 283.726 245.731 282.741 246.949 282.741ZM263.122 282.741C264.34 282.741 265.327 283.726 265.327 284.941C265.327 286.156 264.34 287.141 263.122 287.141C261.904 287.141 260.917 286.156 260.917 284.941C260.917 283.726 261.904 282.741 263.122 282.741ZM279.295 282.741C280.513 282.741 281.5 283.726 281.5 284.941C281.5 286.156 280.513 287.141 279.295 287.141C278.077 287.141 277.089 286.156 277.089 284.941C277.089 283.726 278.077 282.741 279.295 282.741ZM36.7054 266.7C37.9233 266.7 38.9107 267.684 38.9107 268.9C38.9107 270.115 37.9233 271.1 36.7054 271.1C35.4874 271.1 34.5 270.115 34.5 268.9C34.5 267.684 35.4874 266.7 36.7054 266.7ZM52.878 266.7C54.096 266.7 55.0833 267.684 55.0833 268.9C55.0833 270.115 54.096 271.1 52.878 271.1C51.66 271.1 50.6726 270.115 50.6726 268.9C50.6726 267.684 51.66 266.7 52.878 266.7ZM69.0506 266.7C70.2686 266.7 71.256 267.684 71.256 268.9C71.256 270.115 70.2686 271.1 69.0506 271.1C67.8326 271.1 66.8452 270.115 66.8452 268.9C66.8452 267.684 67.8326 266.7 69.0506 266.7ZM85.2232 266.7C86.4412 266.7 87.4286 267.684 87.4286 268.9C87.4286 270.115 86.4412 271.1 85.2232 271.1C84.0052 271.1 83.0179 270.115 83.0179 268.9C83.0179 267.684 84.0052 266.7 85.2232 266.7ZM101.396 266.7C102.614 266.7 103.601 267.684 103.601 268.9C103.601 270.115 102.614 271.1 101.396 271.1C100.178 271.1 99.1905 270.115 99.1905 268.9C99.1905 267.684 100.178 266.7 101.396 266.7ZM117.568 266.7C118.786 266.7 119.774 267.684 119.774 268.9C119.774 270.115 118.786 271.1 117.568 271.1C116.35 271.1 115.363 270.115 115.363 268.9C115.363 267.684 116.35 266.7 117.568 266.7ZM133.741 266.7C134.959 266.7 135.946 267.684 135.946 268.9C135.946 270.115 134.959 271.1 133.741 271.1C132.523 271.1 131.536 270.115 131.536 268.9C131.536 267.684 132.523 266.7 133.741 266.7ZM149.914 266.7C151.132 266.7 152.119 267.684 152.119 268.9C152.119 270.115 151.132 271.1 149.914 271.1C148.696 271.1 147.708 270.115 147.708 268.9C147.708 267.684 148.696 266.7 149.914 266.7ZM166.086 266.7C167.304 266.7 168.292 267.684 168.292 268.9C168.292 270.115 167.304 271.1 166.086 271.1C164.868 271.1 163.881 270.115 163.881 268.9C163.881 267.684 164.868 266.7 166.086 266.7ZM182.259 266.607C183.477 266.607 184.464 267.592 184.464 268.807C184.464 270.022 183.477 271.007 182.259 271.007C181.041 271.007 180.054 270.022 180.054 268.807C180.054 267.592 181.041 266.607 182.259 266.607ZM198.432 266.607C199.65 266.607 200.637 267.592 200.637 268.807C200.637 270.022 199.65 271.007 198.432 271.007C197.214 271.007 196.226 270.022 196.226 268.807C196.226 267.592 197.214 266.607 198.432 266.607ZM214.604 266.607C215.822 266.607 216.81 267.592 216.81 268.807C216.81 270.022 215.822 271.007 214.604 271.007C213.386 271.007 212.399 270.022 212.399 268.807C212.399 267.592 213.386 266.607 214.604 266.607ZM230.777 266.607C231.995 266.607 232.982 267.592 232.982 268.807C232.982 270.022 231.995 271.007 230.777 271.007C229.559 271.007 228.571 270.022 228.571 268.807C228.571 267.592 229.559 266.607 230.777 266.607ZM246.949 266.607C248.167 266.607 249.155 267.592 249.155 268.807C249.155 270.022 248.167 271.007 246.949 271.007C245.731 271.007 244.744 270.022 244.744 268.807C244.744 267.592 245.731 266.607 246.949 266.607ZM263.122 266.607C264.34 266.607 265.327 267.592 265.327 268.807C265.327 270.022 264.34 271.007 263.122 271.007C261.904 271.007 260.917 270.022 260.917 268.807C260.917 267.592 261.904 266.607 263.122 266.607ZM279.295 266.607C280.513 266.607 281.5 267.592 281.5 268.807C281.5 270.022 280.513 271.007 279.295 271.007C278.077 271.007 277.089 270.022 277.089 268.807C277.089 267.592 278.077 266.607 279.295 266.607ZM36.7054 250.566C37.9233 250.566 38.9107 251.551 38.9107 252.766C38.9107 253.981 37.9233 254.966 36.7054 254.966C35.4874 254.966 34.5 253.981 34.5 252.766C34.5 251.551 35.4874 250.566 36.7054 250.566ZM52.878 250.566C54.096 250.566 55.0833 251.551 55.0833 252.766C55.0833 253.981 54.096 254.966 52.878 254.966C51.66 254.966 50.6726 253.981 50.6726 252.766C50.6726 251.551 51.66 250.566 52.878 250.566ZM69.0506 250.566C70.2686 250.566 71.256 251.551 71.256 252.766C71.256 253.981 70.2686 254.966 69.0506 254.966C67.8326 254.966 66.8452 253.981 66.8452 252.766C66.8452 251.551 67.8326 250.566 69.0506 250.566ZM85.2232 250.566C86.4412 250.566 87.4286 251.551 87.4286 252.766C87.4286 253.981 86.4412 254.966 85.2232 254.966C84.0052 254.966 83.0179 253.981 83.0179 252.766C83.0179 251.551 84.0052 250.566 85.2232 250.566ZM101.396 250.566C102.614 250.566 103.601 251.551 103.601 252.766C103.601 253.981 102.614 254.966 101.396 254.966C100.178 254.966 99.1905 253.981 99.1905 252.766C99.1905 251.551 100.178 250.566 101.396 250.566ZM117.568 250.566C118.786 250.566 119.774 251.551 119.774 252.766C119.774 253.981 118.786 254.966 117.568 254.966C116.35 254.966 115.363 253.981 115.363 252.766C115.363 251.551 116.35 250.566 117.568 250.566ZM133.741 250.566C134.959 250.566 135.946 251.551 135.946 252.766C135.946 253.981 134.959 254.966 133.741 254.966C132.523 254.966 131.536 253.981 131.536 252.766C131.536 251.551 132.523 250.566 133.741 250.566ZM149.914 250.566C151.132 250.566 152.119 251.551 152.119 252.766C152.119 253.981 151.132 254.966 149.914 254.966C148.696 254.966 147.708 253.981 147.708 252.766C147.708 251.551 148.696 250.566 149.914 250.566ZM166.086 250.566C167.304 250.566 168.292 251.551 168.292 252.766C168.292 253.981 167.304 254.966 166.086 254.966C164.868 254.966 163.881 253.981 163.881 252.766C163.881 251.551 164.868 250.566 166.086 250.566ZM79.3423 2.69951C79.3423 3.91454 78.3549 4.89951 77.1369 4.89951C75.9189 4.89951 74.9315 3.91454 74.9315 2.69951C74.9315 1.48449 75.9189 0.499512 77.1369 0.499512C78.3549 0.499512 79.3423 1.48449 79.3423 2.69951ZM79.3423 18.8328C79.3423 20.0479 78.3549 21.0328 77.1369 21.0328C75.9189 21.0328 74.9315 20.0479 74.9315 18.8328C74.9315 17.6178 75.9189 16.6328 77.1369 16.6328C78.3549 16.6328 79.3423 17.6178 79.3423 18.8328ZM79.3423 34.9662C79.3423 36.1812 78.3549 37.1662 77.1369 37.1662C75.9189 37.1662 74.9315 36.1812 74.9315 34.9662C74.9315 33.7512 75.9189 32.7662 77.1369 32.7662C78.3549 32.7662 79.3423 33.7512 79.3423 34.9662ZM79.3423 51.0995C79.3423 52.3145 78.3549 53.2995 77.1369 53.2995C75.9189 53.2995 74.9315 52.3145 74.9315 51.0995C74.9315 49.8845 75.9189 48.8995 77.1369 48.8995C78.3549 48.8995 79.3423 49.8845 79.3423 51.0995ZM79.3423 67.2328C79.3423 68.4479 78.3549 69.4328 77.1369 69.4328C75.9189 69.4328 74.9315 68.4479 74.9315 67.2328C74.9315 66.0178 75.9189 65.0328 77.1369 65.0328C78.3549 65.0328 79.3423 66.0178 79.3423 67.2328ZM79.3423 83.3662C79.3423 84.5812 78.3549 85.5662 77.1369 85.5662C75.9189 85.5662 74.9315 84.5812 74.9315 83.3662C74.9315 82.1512 75.9189 81.1662 77.1369 81.1662C78.3549 81.1662 79.3423 82.1512 79.3423 83.3662ZM79.3423 99.4995C79.3423 100.715 78.3549 101.7 77.1369 101.7C75.9189 101.7 74.9315 100.715 74.9315 99.4995C74.9315 98.2845 75.9189 97.2995 77.1369 97.2995C78.3549 97.2995 79.3423 98.2845 79.3423 99.4995ZM79.3423 115.633C79.3423 116.848 78.3549 117.833 77.1369 117.833C75.9189 117.833 74.9315 116.848 74.9315 115.633C74.9315 114.418 75.9189 113.433 77.1369 113.433C78.3549 113.433 79.3423 114.418 79.3423 115.633ZM79.3423 131.766C79.3423 132.981 78.3549 133.966 77.1369 133.966C75.9189 133.966 74.9315 132.981 74.9315 131.766C74.9315 130.551 75.9189 129.566 77.1369 129.566C78.3549 129.566 79.3423 130.551 79.3423 131.766ZM79.3423 147.9C79.3423 149.115 78.3549 150.1 77.1369 150.1C75.9189 150.1 74.9315 149.115 74.9315 147.9C74.9315 146.684 75.9189 145.7 77.1369 145.7C78.3549 145.7 79.3423 146.684 79.3423 147.9ZM79.3423 164.033C79.3423 165.248 78.3549 166.233 77.1369 166.233C75.9189 166.233 74.9315 165.248 74.9315 164.033C74.9315 162.818 75.9189 161.833 77.1369 161.833C78.3549 161.833 79.3423 162.818 79.3423 164.033ZM79.3423 180.166C79.3423 181.381 78.3549 182.366 77.1369 182.366C75.9189 182.366 74.9315 181.381 74.9315 180.166C74.9315 178.951 75.9189 177.966 77.1369 177.966C78.3549 177.966 79.3423 178.951 79.3423 180.166ZM79.3423 196.3C79.3423 197.515 78.3549 198.5 77.1369 198.5C75.9189 198.5 74.9315 197.515 74.9315 196.3C74.9315 195.084 75.9189 194.1 77.1369 194.1C78.3549 194.1 79.3423 195.084 79.3423 196.3ZM79.3423 212.433C79.3423 213.648 78.3549 214.633 77.1369 214.633C75.9189 214.633 74.9315 213.648 74.9315 212.433C74.9315 211.218 75.9189 210.233 77.1369 210.233C78.3549 210.233 79.3423 211.218 79.3423 212.433ZM95.5149 99.4995C95.5149 100.715 94.5275 101.7 93.3095 101.7C92.0915 101.7 91.1042 100.715 91.1042 99.4995C91.1042 98.2845 92.0915 97.2995 93.3095 97.2995C94.5275 97.2995 95.5149 98.2845 95.5149 99.4995ZM95.5149 115.633C95.5149 116.848 94.5275 117.833 93.3095 117.833C92.0915 117.833 91.1042 116.848 91.1042 115.633C91.1042 114.418 92.0915 113.433 93.3095 113.433C94.5275 113.433 95.5149 114.418 95.5149 115.633ZM95.5149 131.766C95.5149 132.981 94.5275 133.966 93.3095 133.966C92.0915 133.966 91.1042 132.981 91.1042 131.766C91.1042 130.551 92.0915 129.566 93.3095 129.566C94.5275 129.566 95.5149 130.551 95.5149 131.766ZM95.5149 147.9C95.5149 149.115 94.5275 150.1 93.3095 150.1C92.0915 150.1 91.1042 149.115 91.1042 147.9C91.1042 146.684 92.0915 145.7 93.3095 145.7C94.5275 145.7 95.5149 146.684 95.5149 147.9ZM95.5149 2.69951C95.5149 3.91454 94.5275 4.89951 93.3095 4.89951C92.0915 4.89951 91.1042 3.91454 91.1042 2.69951C91.1042 1.48449 92.0915 0.499512 93.3095 0.499512C94.5275 0.499512 95.5149 1.48449 95.5149 2.69951ZM95.5149 34.9662C95.5149 36.1812 94.5275 37.1662 93.3095 37.1662C92.0915 37.1662 91.1042 36.1812 91.1042 34.9662C91.1042 33.7512 92.0915 32.7662 93.3095 32.7662C94.5275 32.7662 95.5149 33.7512 95.5149 34.9662ZM95.5149 67.2328C95.5149 68.4479 94.5275 69.4328 93.3095 69.4328C92.0915 69.4328 91.1042 68.4479 91.1042 67.2328C91.1042 66.0178 92.0915 65.0328 93.3095 65.0328C94.5275 65.0328 95.5149 66.0178 95.5149 67.2328ZM95.5149 83.3662C95.5149 84.5812 94.5275 85.5662 93.3095 85.5662C92.0915 85.5662 91.1042 84.5812 91.1042 83.3662C91.1042 82.1512 92.0915 81.1662 93.3095 81.1662C94.5275 81.1662 95.5149 82.1512 95.5149 83.3662ZM95.5149 180.166C95.5149 181.381 94.5275 182.366 93.3095 182.366C92.0915 182.366 91.1042 181.381 91.1042 180.166C91.1042 178.951 92.0915 177.966 93.3095 177.966C94.5275 177.966 95.5149 178.951 95.5149 180.166ZM95.5149 196.3C95.5149 197.515 94.5275 198.5 93.3095 198.5C92.0915 198.5 91.1042 197.515 91.1042 196.3C91.1042 195.084 92.0915 194.1 93.3095 194.1C94.5275 194.1 95.5149 195.084 95.5149 196.3ZM95.5149 18.8328C95.5149 20.0479 94.5275 21.0328 93.3095 21.0328C92.0915 21.0328 91.1042 20.0479 91.1042 18.8328C91.1042 17.6178 92.0915 16.6328 93.3095 16.6328C94.5275 16.6328 95.5149 17.6178 95.5149 18.8328ZM95.5149 212.433C95.5149 213.648 94.5275 214.633 93.3095 214.633C92.0915 214.633 91.1042 213.648 91.1042 212.433C91.1042 211.218 92.0915 210.233 93.3095 210.233C94.5275 210.233 95.5149 211.218 95.5149 212.433ZM95.5149 51.0995C95.5149 52.3145 94.5275 53.2995 93.3095 53.2995C92.0915 53.2995 91.1042 52.3145 91.1042 51.0995C91.1042 49.8845 92.0915 48.8995 93.3095 48.8995C94.5275 48.8995 95.5149 49.8845 95.5149 51.0995ZM95.5149 164.033C95.5149 165.248 94.5275 166.233 93.3095 166.233C92.0915 166.233 91.1042 165.248 91.1042 164.033C91.1042 162.818 92.0915 161.833 93.3095 161.833C94.5275 161.833 95.5149 162.818 95.5149 164.033ZM111.688 2.69951C111.688 3.91454 110.7 4.89951 109.482 4.89951C108.264 4.89951 107.277 3.91454 107.277 2.69951C107.277 1.48449 108.264 0.499512 109.482 0.499512C110.7 0.499512 111.688 1.48449 111.688 2.69951ZM111.688 34.9662C111.688 36.1812 110.7 37.1662 109.482 37.1662C108.264 37.1662 107.277 36.1812 107.277 34.9662C107.277 33.7512 108.264 32.7662 109.482 32.7662C110.7 32.7662 111.688 33.7512 111.688 34.9662ZM111.688 51.0995C111.688 52.3145 110.7 53.2995 109.482 53.2995C108.264 53.2995 107.277 52.3145 107.277 51.0995C107.277 49.8845 108.264 48.8995 109.482 48.8995C110.7 48.8995 111.688 49.8845 111.688 51.0995ZM111.688 67.2328C111.688 68.4479 110.7 69.4328 109.482 69.4328C108.264 69.4328 107.277 68.4479 107.277 67.2328C107.277 66.0178 108.264 65.0328 109.482 65.0328C110.7 65.0328 111.688 66.0178 111.688 67.2328ZM111.688 83.3662C111.688 84.5812 110.7 85.5662 109.482 85.5662C108.264 85.5662 107.277 84.5812 107.277 83.3662C107.277 82.1512 108.264 81.1662 109.482 81.1662C110.7 81.1662 111.688 82.1512 111.688 83.3662ZM111.688 18.8328C111.688 20.0479 110.7 21.0328 109.482 21.0328C108.264 21.0328 107.277 20.0479 107.277 18.8328C107.277 17.6178 108.264 16.6328 109.482 16.6328C110.7 16.6328 111.688 17.6178 111.688 18.8328ZM111.688 99.4995C111.688 100.715 110.7 101.7 109.482 101.7C108.264 101.7 107.277 100.715 107.277 99.4995C107.277 98.2845 108.264 97.2995 109.482 97.2995C110.7 97.2995 111.688 98.2845 111.688 99.4995ZM111.688 115.633C111.688 116.848 110.7 117.833 109.482 117.833C108.264 117.833 107.277 116.848 107.277 115.633C107.277 114.418 108.264 113.433 109.482 113.433C110.7 113.433 111.688 114.418 111.688 115.633ZM111.688 131.766C111.688 132.981 110.7 133.966 109.482 133.966C108.264 133.966 107.277 132.981 107.277 131.766C107.277 130.551 108.264 129.566 109.482 129.566C110.7 129.566 111.688 130.551 111.688 131.766ZM111.688 147.9C111.688 149.115 110.7 150.1 109.482 150.1C108.264 150.1 107.277 149.115 107.277 147.9C107.277 146.684 108.264 145.7 109.482 145.7C110.7 145.7 111.688 146.684 111.688 147.9ZM111.688 164.033C111.688 165.248 110.7 166.233 109.482 166.233C108.264 166.233 107.277 165.248 107.277 164.033C107.277 162.818 108.264 161.833 109.482 161.833C110.7 161.833 111.688 162.818 111.688 164.033ZM111.688 180.166C111.688 181.381 110.7 182.366 109.482 182.366C108.264 182.366 107.277 181.381 107.277 180.166C107.277 178.951 108.264 177.966 109.482 177.966C110.7 177.966 111.688 178.951 111.688 180.166ZM111.688 196.3C111.688 197.515 110.7 198.5 109.482 198.5C108.264 198.5 107.277 197.515 107.277 196.3C107.277 195.084 108.264 194.1 109.482 194.1C110.7 194.1 111.688 195.084 111.688 196.3ZM111.688 212.433C111.688 213.648 110.7 214.633 109.482 214.633C108.264 214.633 107.277 213.648 107.277 212.433C107.277 211.218 108.264 210.233 109.482 210.233C110.7 210.233 111.688 211.218 111.688 212.433ZM127.86 2.69951C127.86 3.91454 126.873 4.89951 125.655 4.89951C124.437 4.89951 123.449 3.91454 123.449 2.69951C123.449 1.48449 124.437 0.499512 125.655 0.499512C126.873 0.499512 127.86 1.48449 127.86 2.69951ZM127.86 18.8328C127.86 20.0479 126.873 21.0328 125.655 21.0328C124.437 21.0328 123.449 20.0479 123.449 18.8328C123.449 17.6178 124.437 16.6328 125.655 16.6328C126.873 16.6328 127.86 17.6178 127.86 18.8328ZM127.86 34.9662C127.86 36.1812 126.873 37.1662 125.655 37.1662C124.437 37.1662 123.449 36.1812 123.449 34.9662C123.449 33.7512 124.437 32.7662 125.655 32.7662C126.873 32.7662 127.86 33.7512 127.86 34.9662ZM127.86 51.0995C127.86 52.3145 126.873 53.2995 125.655 53.2995C124.437 53.2995 123.449 52.3145 123.449 51.0995C123.449 49.8845 124.437 48.8995 125.655 48.8995C126.873 48.8995 127.86 49.8845 127.86 51.0995ZM127.86 67.2328C127.86 68.4479 126.873 69.4328 125.655 69.4328C124.437 69.4328 123.449 68.4479 123.449 67.2328C123.449 66.0178 124.437 65.0328 125.655 65.0328C126.873 65.0328 127.86 66.0178 127.86 67.2328ZM127.86 83.3662C127.86 84.5812 126.873 85.5662 125.655 85.5662C124.437 85.5662 123.449 84.5812 123.449 83.3662C123.449 82.1512 124.437 81.1662 125.655 81.1662C126.873 81.1662 127.86 82.1512 127.86 83.3662ZM127.86 99.4995C127.86 100.715 126.873 101.7 125.655 101.7C124.437 101.7 123.449 100.715 123.449 99.4995C123.449 98.2845 124.437 97.2995 125.655 97.2995C126.873 97.2995 127.86 98.2845 127.86 99.4995ZM127.86 115.633C127.86 116.848 126.873 117.833 125.655 117.833C124.437 117.833 123.449 116.848 123.449 115.633C123.449 114.418 124.437 113.433 125.655 113.433C126.873 113.433 127.86 114.418 127.86 115.633ZM127.86 131.766C127.86 132.981 126.873 133.966 125.655 133.966C124.437 133.966 123.449 132.981 123.449 131.766C123.449 130.551 124.437 129.566 125.655 129.566C126.873 129.566 127.86 130.551 127.86 131.766ZM127.86 147.9C127.86 149.115 126.873 150.1 125.655 150.1C124.437 150.1 123.449 149.115 123.449 147.9C123.449 146.684 124.437 145.7 125.655 145.7C126.873 145.7 127.86 146.684 127.86 147.9ZM127.86 164.033C127.86 165.248 126.873 166.233 125.655 166.233C124.437 166.233 123.449 165.248 123.449 164.033C123.449 162.818 124.437 161.833 125.655 161.833C126.873 161.833 127.86 162.818 127.86 164.033ZM127.86 180.166C127.86 181.381 126.873 182.366 125.655 182.366C124.437 182.366 123.449 181.381 123.449 180.166C123.449 178.951 124.437 177.966 125.655 177.966C126.873 177.966 127.86 178.951 127.86 180.166ZM127.86 196.3C127.86 197.515 126.873 198.5 125.655 198.5C124.437 198.5 123.449 197.515 123.449 196.3C123.449 195.084 124.437 194.1 125.655 194.1C126.873 194.1 127.86 195.084 127.86 196.3ZM127.86 212.433C127.86 213.648 126.873 214.633 125.655 214.633C124.437 214.633 123.449 213.648 123.449 212.433C123.449 211.218 124.437 210.233 125.655 210.233C126.873 210.233 127.86 211.218 127.86 212.433ZM144.033 2.69951C144.033 3.91454 143.045 4.89951 141.827 4.89951C140.609 4.89951 139.622 3.91454 139.622 2.69951C139.622 1.48449 140.609 0.499512 141.827 0.499512C143.045 0.499512 144.033 1.48449 144.033 2.69951ZM144.033 18.8328C144.033 20.0479 143.045 21.0328 141.827 21.0328C140.609 21.0328 139.622 20.0479 139.622 18.8328C139.622 17.6178 140.609 16.6328 141.827 16.6328C143.045 16.6328 144.033 17.6178 144.033 18.8328ZM144.033 34.9662C144.033 36.1812 143.045 37.1662 141.827 37.1662C140.609 37.1662 139.622 36.1812 139.622 34.9662C139.622 33.7512 140.609 32.7662 141.827 32.7662C143.045 32.7662 144.033 33.7512 144.033 34.9662ZM144.033 51.0995C144.033 52.3145 143.045 53.2995 141.827 53.2995C140.609 53.2995 139.622 52.3145 139.622 51.0995C139.622 49.8845 140.609 48.8995 141.827 48.8995C143.045 48.8995 144.033 49.8845 144.033 51.0995ZM144.033 67.2328C144.033 68.4479 143.045 69.4328 141.827 69.4328C140.609 69.4328 139.622 68.4479 139.622 67.2328C139.622 66.0178 140.609 65.0328 141.827 65.0328C143.045 65.0328 144.033 66.0178 144.033 67.2328ZM144.033 83.3662C144.033 84.5812 143.045 85.5662 141.827 85.5662C140.609 85.5662 139.622 84.5812 139.622 83.3662C139.622 82.1512 140.609 81.1662 141.827 81.1662C143.045 81.1662 144.033 82.1512 144.033 83.3662ZM144.033 99.4995C144.033 100.715 143.045 101.7 141.827 101.7C140.609 101.7 139.622 100.715 139.622 99.4995C139.622 98.2845 140.609 97.2995 141.827 97.2995C143.045 97.2995 144.033 98.2845 144.033 99.4995ZM144.033 115.633C144.033 116.848 143.045 117.833 141.827 117.833C140.609 117.833 139.622 116.848 139.622 115.633C139.622 114.418 140.609 113.433 141.827 113.433C143.045 113.433 144.033 114.418 144.033 115.633ZM144.033 131.766C144.033 132.981 143.045 133.966 141.827 133.966C140.609 133.966 139.622 132.981 139.622 131.766C139.622 130.551 140.609 129.566 141.827 129.566C143.045 129.566 144.033 130.551 144.033 131.766ZM144.033 147.9C144.033 149.115 143.045 150.1 141.827 150.1C140.609 150.1 139.622 149.115 139.622 147.9C139.622 146.684 140.609 145.7 141.827 145.7C143.045 145.7 144.033 146.684 144.033 147.9ZM144.033 164.033C144.033 165.248 143.045 166.233 141.827 166.233C140.609 166.233 139.622 165.248 139.622 164.033C139.622 162.818 140.609 161.833 141.827 161.833C143.045 161.833 144.033 162.818 144.033 164.033ZM144.033 180.166C144.033 181.381 143.045 182.366 141.827 182.366C140.609 182.366 139.622 181.381 139.622 180.166C139.622 178.951 140.609 177.966 141.827 177.966C143.045 177.966 144.033 178.951 144.033 180.166ZM144.033 196.3C144.033 197.515 143.045 198.5 141.827 198.5C140.609 198.5 139.622 197.515 139.622 196.3C139.622 195.084 140.609 194.1 141.827 194.1C143.045 194.1 144.033 195.084 144.033 196.3ZM144.033 212.433C144.033 213.648 143.045 214.633 141.827 214.633C140.609 214.633 139.622 213.648 139.622 212.433C139.622 211.218 140.609 210.233 141.827 210.233C143.045 210.233 144.033 211.218 144.033 212.433ZM160.205 2.69951C160.205 3.91454 159.218 4.89951 158 4.89951C156.782 4.89951 155.795 3.91454 155.795 2.69951C155.795 1.48449 156.782 0.499512 158 0.499512C159.218 0.499512 160.205 1.48449 160.205 2.69951ZM160.205 18.8328C160.205 20.0479 159.218 21.0328 158 21.0328C156.782 21.0328 155.795 20.0479 155.795 18.8328C155.795 17.6178 156.782 16.6328 158 16.6328C159.218 16.6328 160.205 17.6178 160.205 18.8328ZM160.205 34.9662C160.205 36.1812 159.218 37.1662 158 37.1662C156.782 37.1662 155.795 36.1812 155.795 34.9662C155.795 33.7512 156.782 32.7662 158 32.7662C159.218 32.7662 160.205 33.7512 160.205 34.9662ZM160.205 51.0995C160.205 52.3145 159.218 53.2995 158 53.2995C156.782 53.2995 155.795 52.3145 155.795 51.0995C155.795 49.8845 156.782 48.8995 158 48.8995C159.218 48.8995 160.205 49.8845 160.205 51.0995ZM160.205 67.2328C160.205 68.4479 159.218 69.4328 158 69.4328C156.782 69.4328 155.795 68.4479 155.795 67.2328C155.795 66.0178 156.782 65.0328 158 65.0328C159.218 65.0328 160.205 66.0178 160.205 67.2328ZM160.205 83.3662C160.205 84.5812 159.218 85.5662 158 85.5662C156.782 85.5662 155.795 84.5812 155.795 83.3662C155.795 82.1512 156.782 81.1662 158 81.1662C159.218 81.1662 160.205 82.1512 160.205 83.3662ZM160.205 99.4995C160.205 100.715 159.218 101.7 158 101.7C156.782 101.7 155.795 100.715 155.795 99.4995C155.795 98.2845 156.782 97.2995 158 97.2995C159.218 97.2995 160.205 98.2845 160.205 99.4995ZM160.205 115.633C160.205 116.848 159.218 117.833 158 117.833C156.782 117.833 155.795 116.848 155.795 115.633C155.795 114.418 156.782 113.433 158 113.433C159.218 113.433 160.205 114.418 160.205 115.633ZM160.205 131.766C160.205 132.981 159.218 133.966 158 133.966C156.782 133.966 155.795 132.981 155.795 131.766C155.795 130.551 156.782 129.566 158 129.566C159.218 129.566 160.205 130.551 160.205 131.766ZM160.205 147.9C160.205 149.115 159.218 150.1 158 150.1C156.782 150.1 155.795 149.115 155.795 147.9C155.795 146.684 156.782 145.7 158 145.7C159.218 145.7 160.205 146.684 160.205 147.9ZM160.205 164.033C160.205 165.248 159.218 166.233 158 166.233C156.782 166.233 155.795 165.248 155.795 164.033C155.795 162.818 156.782 161.833 158 161.833C159.218 161.833 160.205 162.818 160.205 164.033ZM160.205 180.166C160.205 181.381 159.218 182.366 158 182.366C156.782 182.366 155.795 181.381 155.795 180.166C155.795 178.951 156.782 177.966 158 177.966C159.218 177.966 160.205 178.951 160.205 180.166ZM160.205 196.3C160.205 197.515 159.218 198.5 158 198.5C156.782 198.5 155.795 197.515 155.795 196.3C155.795 195.084 156.782 194.1 158 194.1C159.218 194.1 160.205 195.084 160.205 196.3ZM160.205 212.433C160.205 213.648 159.218 214.633 158 214.633C156.782 214.633 155.795 213.648 155.795 212.433C155.795 211.218 156.782 210.233 158 210.233C159.218 210.233 160.205 211.218 160.205 212.433ZM176.378 2.69951C176.378 3.91454 175.391 4.89951 174.173 4.89951C172.955 4.89951 171.967 3.91454 171.967 2.69951C171.967 1.48449 172.955 0.499512 174.173 0.499512C175.391 0.499512 176.378 1.48449 176.378 2.69951ZM176.378 18.8328C176.378 20.0479 175.391 21.0328 174.173 21.0328C172.955 21.0328 171.967 20.0479 171.967 18.8328C171.967 17.6178 172.955 16.6328 174.173 16.6328C175.391 16.6328 176.378 17.6178 176.378 18.8328ZM176.378 34.9662C176.378 36.1812 175.391 37.1662 174.173 37.1662C172.955 37.1662 171.967 36.1812 171.967 34.9662C171.967 33.7512 172.955 32.7662 174.173 32.7662C175.391 32.7662 176.378 33.7512 176.378 34.9662ZM176.378 51.0995C176.378 52.3145 175.391 53.2995 174.173 53.2995C172.955 53.2995 171.967 52.3145 171.967 51.0995C171.967 49.8845 172.955 48.8995 174.173 48.8995C175.391 48.8995 176.378 49.8845 176.378 51.0995ZM176.378 67.2328C176.378 68.4479 175.391 69.4328 174.173 69.4328C172.955 69.4328 171.967 68.4479 171.967 67.2328C171.967 66.0178 172.955 65.0328 174.173 65.0328C175.391 65.0328 176.378 66.0178 176.378 67.2328ZM176.378 83.3662C176.378 84.5812 175.391 85.5662 174.173 85.5662C172.955 85.5662 171.967 84.5812 171.967 83.3662C171.967 82.1512 172.955 81.1662 174.173 81.1662C175.391 81.1662 176.378 82.1512 176.378 83.3662ZM176.378 99.4995C176.378 100.715 175.391 101.7 174.173 101.7C172.955 101.7 171.967 100.715 171.967 99.4995C171.967 98.2845 172.955 97.2995 174.173 97.2995C175.391 97.2995 176.378 98.2845 176.378 99.4995ZM176.378 115.633C176.378 116.848 175.391 117.833 174.173 117.833C172.955 117.833 171.967 116.848 171.967 115.633C171.967 114.418 172.955 113.433 174.173 113.433C175.391 113.433 176.378 114.418 176.378 115.633ZM176.378 131.766C176.378 132.981 175.391 133.966 174.173 133.966C172.955 133.966 171.967 132.981 171.967 131.766C171.967 130.551 172.955 129.566 174.173 129.566C175.391 129.566 176.378 130.551 176.378 131.766ZM176.378 147.9C176.378 149.115 175.391 150.1 174.173 150.1C172.955 150.1 171.967 149.115 171.967 147.9C171.967 146.684 172.955 145.7 174.173 145.7C175.391 145.7 176.378 146.684 176.378 147.9ZM176.378 164.033C176.378 165.248 175.391 166.233 174.173 166.233C172.955 166.233 171.967 165.248 171.967 164.033C171.967 162.818 172.955 161.833 174.173 161.833C175.391 161.833 176.378 162.818 176.378 164.033ZM176.378 180.166C176.378 181.381 175.391 182.366 174.173 182.366C172.955 182.366 171.967 181.381 171.967 180.166C171.967 178.951 172.955 177.966 174.173 177.966C175.391 177.966 176.378 178.951 176.378 180.166ZM176.378 196.3C176.378 197.515 175.391 198.5 174.173 198.5C172.955 198.5 171.967 197.515 171.967 196.3C171.967 195.084 172.955 194.1 174.173 194.1C175.391 194.1 176.378 195.084 176.378 196.3ZM176.378 212.433C176.378 213.648 175.391 214.633 174.173 214.633C172.955 214.633 171.967 213.648 171.967 212.433C171.967 211.218 172.955 210.233 174.173 210.233C175.391 210.233 176.378 211.218 176.378 212.433ZM192.551 2.69951C192.551 3.91454 191.563 4.89951 190.345 4.89951C189.127 4.89951 188.14 3.91454 188.14 2.69951C188.14 1.48449 189.127 0.499512 190.345 0.499512C191.563 0.499512 192.551 1.48449 192.551 2.69951ZM192.551 18.8328C192.551 20.0479 191.563 21.0328 190.345 21.0328C189.127 21.0328 188.14 20.0479 188.14 18.8328C188.14 17.6178 189.127 16.6328 190.345 16.6328C191.563 16.6328 192.551 17.6178 192.551 18.8328ZM192.551 34.9662C192.551 36.1812 191.563 37.1662 190.345 37.1662C189.127 37.1662 188.14 36.1812 188.14 34.9662C188.14 33.7512 189.127 32.7662 190.345 32.7662C191.563 32.7662 192.551 33.7512 192.551 34.9662ZM192.551 51.0995C192.551 52.3145 191.563 53.2995 190.345 53.2995C189.127 53.2995 188.14 52.3145 188.14 51.0995C188.14 49.8845 189.127 48.8995 190.345 48.8995C191.563 48.8995 192.551 49.8845 192.551 51.0995ZM192.551 67.2328C192.551 68.4479 191.563 69.4328 190.345 69.4328C189.127 69.4328 188.14 68.4479 188.14 67.2328C188.14 66.0178 189.127 65.0328 190.345 65.0328C191.563 65.0328 192.551 66.0178 192.551 67.2328ZM192.551 83.3662C192.551 84.5812 191.563 85.5662 190.345 85.5662C189.127 85.5662 188.14 84.5812 188.14 83.3662C188.14 82.1512 189.127 81.1662 190.345 81.1662C191.563 81.1662 192.551 82.1512 192.551 83.3662ZM192.551 99.4995C192.551 100.715 191.563 101.7 190.345 101.7C189.127 101.7 188.14 100.715 188.14 99.4995C188.14 98.2845 189.127 97.2995 190.345 97.2995C191.563 97.2995 192.551 98.2845 192.551 99.4995ZM192.551 115.633C192.551 116.848 191.563 117.833 190.345 117.833C189.127 117.833 188.14 116.848 188.14 115.633C188.14 114.418 189.127 113.433 190.345 113.433C191.563 113.433 192.551 114.418 192.551 115.633ZM192.551 131.766C192.551 132.981 191.563 133.966 190.345 133.966C189.127 133.966 188.14 132.981 188.14 131.766C188.14 130.551 189.127 129.566 190.345 129.566C191.563 129.566 192.551 130.551 192.551 131.766ZM192.551 147.9C192.551 149.115 191.563 150.1 190.345 150.1C189.127 150.1 188.14 149.115 188.14 147.9C188.14 146.684 189.127 145.7 190.345 145.7C191.563 145.7 192.551 146.684 192.551 147.9ZM192.551 164.033C192.551 165.248 191.563 166.233 190.345 166.233C189.127 166.233 188.14 165.248 188.14 164.033C188.14 162.818 189.127 161.833 190.345 161.833C191.563 161.833 192.551 162.818 192.551 164.033ZM192.551 180.166C192.551 181.381 191.563 182.366 190.345 182.366C189.127 182.366 188.14 181.381 188.14 180.166C188.14 178.951 189.127 177.966 190.345 177.966C191.563 177.966 192.551 178.951 192.551 180.166ZM192.551 196.3C192.551 197.515 191.563 198.5 190.345 198.5C189.127 198.5 188.14 197.515 188.14 196.3C188.14 195.084 189.127 194.1 190.345 194.1C191.563 194.1 192.551 195.084 192.551 196.3ZM192.551 212.433C192.551 213.648 191.563 214.633 190.345 214.633C189.127 214.633 188.14 213.648 188.14 212.433C188.14 211.218 189.127 210.233 190.345 210.233C191.563 210.233 192.551 211.218 192.551 212.433Z" fill="#F6F6F6"/>
<path fill-rule="evenodd" clip-rule="evenodd" d="M228.441 59.6502C256.669 71.5339 276.534 99.8452 281.343 129.38C286.152 158.914 275.697 189.672 254.997 211.518C234.296 233.363 203.349 246.47 171.566 255.208C139.574 264.121 106.745 268.664 81.6534 259.402C56.5615 250.14 39.2063 226.897 24.1512 203.304C9.09603 179.886 -3.65902 156.118 1.77756 135.846C7.42323 115.574 31.0514 98.9714 54.8887 86.5634C78.7261 74.1553 102.354 65.7668 132.674 59.3006C162.993 52.6597 200.004 47.9412 228.441 59.6502Z" fill="#F6F6F6"/>
<path fill-rule="evenodd" clip-rule="evenodd" d="M4.90625 250.171C5.98304 250.171 6.9594 250.61 7.66665 251.319C8.37413 252.027 8.8125 253.006 8.8125 254.085C8.8125 255.164 8.37405 256.143 7.66649 256.852C6.95926 257.56 5.98296 258 4.90625 258C3.82954 258 2.85324 257.56 2.14601 256.852C1.43845 256.143 1 255.164 1 254.085C1 253.006 1.43837 252.027 2.14585 251.319C2.8531 250.61 3.82946 250.171 4.90625 250.171ZM4.90625 250.498C3.91885 250.498 3.02309 250.9 2.37434 251.55C1.72604 252.2 1.32459 253.096 1.32459 254.085C1.32459 255.074 1.72604 255.971 2.37434 256.62C3.02309 257.27 3.91885 257.673 4.90625 257.673C5.89395 257.673 6.78961 257.27 7.43825 256.621C8.08656 255.971 8.48791 255.074 8.48791 254.085C8.48791 253.096 8.08656 252.199 7.43825 251.55C6.78961 250.9 5.89395 250.498 4.90625 250.498ZM233.23 198.671C233.307 198.671 233.383 198.7 233.443 198.76C233.502 198.819 233.531 198.896 233.531 198.974C233.531 199.051 233.502 199.129 233.442 199.188L230.051 202.585L233.442 205.982C233.502 206.041 233.531 206.119 233.531 206.197C233.531 206.274 233.502 206.352 233.442 206.411C233.384 206.47 233.307 206.5 233.23 206.5C233.153 206.5 233.076 206.47 233.017 206.411L229.625 203.012L226.233 206.411C226.174 206.47 226.097 206.5 226.02 206.5C225.943 206.5 225.866 206.47 225.808 206.411C225.748 206.352 225.719 206.274 225.719 206.197C225.719 206.119 225.748 206.041 225.808 205.982L229.198 202.585L225.808 199.189C225.748 199.129 225.719 199.051 225.719 198.974C225.719 198.896 225.748 198.819 225.808 198.759C225.867 198.7 225.943 198.671 226.02 198.671L229.625 202.157L233.017 198.76C233.076 198.701 233.153 198.671 233.23 198.671ZM56.9796 189.842C57.0568 189.842 57.1338 189.872 57.1927 189.931C57.2517 189.99 57.281 190.068 57.281 190.145C57.281 190.223 57.2514 190.301 57.1927 190.36L53.8012 193.756L57.1923 197.154C57.2515 197.213 57.2812 197.29 57.2812 197.368C57.2812 197.446 57.2515 197.523 57.1923 197.582C57.1337 197.641 57.0567 197.671 56.9796 197.671C56.9026 197.671 56.8256 197.641 56.7669 197.582L53.3747 194.184L49.9831 197.582C49.9244 197.641 49.8474 197.671 49.7704 197.671C49.6933 197.671 49.6163 197.641 49.5577 197.582C49.4985 197.523 49.4688 197.446 49.4688 197.368C49.4688 197.29 49.4985 197.213 49.5577 197.154L52.9482 193.756L49.5578 190.36C49.4986 190.301 49.469 190.223 49.469 190.145C49.469 190.068 49.4983 189.99 49.5573 189.931C49.6162 189.872 49.6932 189.842 49.7704 189.842L53.3747 193.329L56.7677 189.931C56.8262 189.872 56.9029 189.842 56.9796 189.842ZM229.625 114.8C230.702 114.8 231.678 115.239 232.385 115.947C233.093 116.656 233.531 117.634 233.531 118.713C233.531 119.793 233.093 120.772 232.385 121.48C231.678 122.189 230.702 122.628 229.625 122.628C228.548 122.628 227.572 122.189 226.865 121.48C226.157 120.772 225.719 119.793 225.719 118.713C225.719 117.634 226.157 116.656 226.865 115.947C227.572 115.239 228.548 114.8 229.625 114.8ZM229.625 115.126C228.637 115.126 227.742 115.529 227.093 116.178C226.445 116.828 226.043 117.725 226.043 118.713C226.043 119.702 226.445 120.599 227.093 121.249C227.742 121.899 228.637 122.301 229.625 122.301C230.612 122.301 231.508 121.899 232.157 121.249C232.805 120.599 233.207 119.702 233.207 118.713C233.207 117.725 232.805 116.828 232.157 116.178C231.508 115.529 230.612 115.126 229.625 115.126ZM281.699 52.9995C281.776 52.9995 281.852 53.0289 281.911 53.0876C281.97 53.1469 282 53.2246 282 53.3023C282 53.3797 281.97 53.4571 281.911 53.5165L278.52 56.9135L281.911 60.3107C281.97 60.37 282 60.4476 282 60.5252C282 60.6028 281.97 60.6803 281.911 60.7396C281.852 60.7984 281.775 60.8281 281.698 60.8281C281.621 60.8281 281.544 60.7984 281.486 60.7396L278.093 57.3407L274.702 60.7396C274.643 60.7984 274.566 60.8281 274.489 60.8281C274.412 60.8281 274.335 60.7984 274.276 60.7396C274.217 60.6803 274.188 60.6028 274.188 60.5252C274.188 60.4476 274.217 60.37 274.276 60.3107L277.667 56.9135L274.276 53.516C274.217 53.4571 274.188 53.3797 274.188 53.3023C274.188 53.2246 274.217 53.1469 274.276 53.0876C274.335 53.0289 274.412 52.9995 274.489 52.9995L278.093 56.4852L281.485 53.088C281.544 53.0291 281.621 52.9995 281.699 52.9995ZM55.9548 53.9715C56.7642 54.6841 57.2086 55.6604 57.2731 56.661C57.3375 57.6615 57.0221 58.6867 56.3107 59.4974C55.6251 60.2791 54.6777 60.7485 53.6415 60.8189C52.4344 60.8244 51.5213 60.4914 50.7972 59.8531C50.0131 59.1634 49.5446 58.2089 49.477 57.1647C49.4101 56.1213 49.7524 55.1138 50.4422 54.328C51.153 53.5174 52.1267 53.0723 53.1248 53.0077C54.123 52.9432 55.1457 53.2592 55.9548 53.9715ZM53.3781 53.3264C52.3827 53.3264 51.3921 53.7385 50.6847 54.5444C50.0535 55.2647 49.7395 56.1875 49.8018 57.1443C49.8634 58.0999 50.2929 58.9749 51.0109 59.6071C51.7305 60.2408 52.6545 60.558 53.6081 60.4932C54.5618 60.4316 55.4356 60.0005 56.0669 59.2809C56.7186 58.5382 57.0083 57.5992 56.9493 56.6823C56.8904 55.7654 56.4829 54.8711 55.7414 54.2177C55.0619 53.6203 54.2181 53.3264 53.3781 53.3264Z" stroke="#E5E5E5"/>
<path fill-rule="evenodd" clip-rule="evenodd" d="M191.2 112.074C190.221 112.074 189.425 111.278 189.425 110.299C189.425 109.321 190.221 108.524 191.2 108.524C192.179 108.524 192.975 109.321 192.975 110.299C192.975 111.278 192.179 112.074 191.2 112.074Z" fill="#CACAFB"/>
<path fill-rule="evenodd" clip-rule="evenodd" d="M143.275 223.899C142.296 223.899 141.5 223.103 141.5 222.124C141.5 221.146 142.296 220.349 143.275 220.349C144.254 220.349 145.05 221.146 145.05 222.124C145.05 223.103 144.254 223.899 143.275 223.899Z" fill="#CACAFB"/>
<path fill-rule="evenodd" clip-rule="evenodd" d="M97.125 106.749C96.1463 106.749 95.35 105.953 95.35 104.974C95.35 103.996 96.1463 103.199 97.125 103.199C98.1037 103.199 98.9 103.996 98.9 104.974C98.9 105.953 98.1037 106.749 97.125 106.749Z" fill="#CACAFB"/>
<path fill-rule="evenodd" clip-rule="evenodd" d="M136.777 171.677L125.448 158.286L125.231 158.052C123.877 156.744 121.824 156.72 120.472 157.982C119.046 159.314 118.918 161.589 120.183 163.084L134.731 180.279C134.824 180.388 134.925 180.49 135.035 180.584C136.153 181.539 137.833 181.406 138.788 180.288L169.906 143.86L170.102 143.607C171.164 142.079 170.963 140.004 169.64 138.757C168.195 137.394 165.956 137.521 164.663 139.036L136.777 171.677Z" fill="#E1000F"/>
<path d="M90.807 168.938C85.8704 140.941 104.564 114.243 132.561 109.307C150.349 106.17 168.177 112.551 179.971 125.789C180.623 126.521 180.558 127.643 179.826 128.295C179.094 128.947 177.972 128.882 177.32 128.15C166.337 115.822 149.74 109.882 133.178 112.803C107.112 117.399 89.7069 142.256 94.3031 168.322C98.8992 194.388 123.756 211.793 149.822 207.196C175.888 202.6 193.293 177.744 188.697 151.677C188.527 150.712 189.171 149.791 190.137 149.621C191.102 149.451 192.023 150.096 192.193 151.061C197.13 179.058 178.435 205.756 150.439 210.693C122.442 215.629 95.7436 196.935 90.807 168.938Z" fill="#000091"/>
<path d="M195.148 172.29C195.366 171.335 196.317 170.736 197.273 170.954C198.229 171.173 198.827 172.124 198.609 173.08C196.221 183.546 190.991 193.104 183.555 200.772C182.872 201.476 181.749 201.494 181.045 200.811C180.341 200.129 180.324 199.005 181.006 198.301C187.993 191.096 192.906 182.118 195.148 172.29Z" fill="#000091"/>
<path d="M198.3 163.55C197.32 163.55 196.525 164.344 196.525 165.325C196.525 166.305 197.32 167.1 198.3 167.1C199.28 167.1 200.075 166.305 200.075 165.325C200.075 164.344 199.28 163.55 198.3 163.55Z" fill="#000091"/>
</g>
<defs>
<clipPath id="clip0_37_13133">
<rect width="282" height="319" fill="white" transform="translate(0.5 0.499512)"/>
</clipPath>
</defs>
</svg>
